<svg width="24" height="24" viewBox="0 0 24 24" fill="none" xmlns="http://www.w3.org/2000/svg">
<path d="M11.998 8.59933C10.1251 8.59933 8.59666 10.1278 8.59666 12.0008C8.59666 13.8737 10.1251 15.4022 11.998 15.4022C13.871 15.4022 15.3994 13.8737 15.3994 12.0008C15.3994 10.1278 13.871 8.59933 11.998 8.59933ZM22.1996 12.0008C22.1996 10.5922 22.2124 9.19644 22.1333 7.79044C22.0542 6.15733 21.6817 4.70795 20.4875 3.51375C19.2907 2.31699 17.8439 1.94699 16.2109 1.86789C14.8023 1.78878 13.4066 1.80154 12.0006 1.80154C10.5921 1.80154 9.1963 1.78878 7.79033 1.86789C6.15725 1.94699 4.7079 2.31954 3.51372 3.51375C2.31698 4.71051 1.94699 6.15733 1.86788 7.79044C1.78878 9.19899 1.80154 10.5948 1.80154 12.0008C1.80154 13.4068 1.78878 14.8051 1.86788 16.2111C1.94699 17.8442 2.31953 19.2936 3.51372 20.4878C4.71045 21.6846 6.15725 22.0546 7.79033 22.1337C9.19885 22.2128 10.5946 22.2 12.0006 22.2C13.4091 22.2 14.8049 22.2128 16.2109 22.1337C17.8439 22.0546 19.2933 21.682 20.4875 20.4878C21.6842 19.2911 22.0542 17.8442 22.1333 16.2111C22.215 14.8051 22.1996 13.4093 22.1996 12.0008ZM11.998 17.2344C9.10189 17.2344 6.76455 14.897 6.76455 12.0008C6.76455 9.10457 9.10189 6.7672 11.998 6.7672C14.8942 6.7672 17.2315 9.10457 17.2315 12.0008C17.2315 14.897 14.8942 17.2344 11.998 17.2344ZM17.4459 7.77513C16.7697 7.77513 16.2236 7.22906 16.2236 6.55285C16.2236 5.87664 16.7697 5.33057 17.4459 5.33057C18.1221 5.33057 18.6681 5.87664 18.6681 6.55285C18.6683 6.71342 18.6368 6.87245 18.5755 7.02083C18.5141 7.16922 18.4241 7.30404 18.3106 7.41758C18.197 7.53112 18.0622 7.62114 17.9138 7.6825C17.7655 7.74385 17.6064 7.77533 17.4459 7.77513Z" fill="#665244"/>
</svg>
