<svg width="10" height="12" viewBox="0 0 10 12" fill="none" xmlns="http://www.w3.org/2000/svg">
<path d="M9.528 0.494561C8.9015 0.259517 7.90781 0 6.67912 0C3.54243 0 1.3336 1.58174 1.32005 3.84316C1.294 5.51162 2.90151 6.43833 4.1038 6.99465C5.33267 7.56312 5.75039 7.93417 5.75039 8.44088C5.73789 9.21911 4.7574 9.57783 3.84292 9.57783C2.5748 9.57783 1.89532 9.39288 0.862724 8.95992L0.444476 8.77431L0 11.382C0.744962 11.7029 2.11747 11.9877 3.54243 12.0002C6.87522 12.0002 9.04497 10.4429 9.07068 8.03305C9.08335 6.71066 8.23453 5.69739 6.40452 4.8694C5.29359 4.33788 4.61324 3.97948 4.61324 3.43565C4.62626 2.94125 5.18868 2.43486 6.44273 2.43486C7.47532 2.41006 8.23401 2.64478 8.80875 2.87966L9.09603 3.00301L9.528 0.494561Z" fill="#15195A"/>
</svg>
