<svg width="6" height="7" viewBox="0 0 6 7" fill="none" xmlns="http://www.w3.org/2000/svg">
<path fill-rule="evenodd" clip-rule="evenodd" d="M5.14613 0.731024C4.60618 0.243675 3.86968 0 2.93665 0C1.73808 0 0.833017 0.429112 0.22145 1.28734L1.33325 1.97162C1.74409 1.39027 2.30208 1.0996 3.00722 1.0996C3.45678 1.09446 3.89183 1.25506 4.22565 1.5494C4.55849 1.81833 4.74994 2.21929 4.74705 2.64134V2.92333C4.26197 2.65513 3.64466 2.52104 2.8951 2.52104C2.01695 2.52206 1.31495 2.72333 0.789109 3.12486C0.263266 3.52639 0.000344569 4.06712 0.000344569 4.74706C-0.0111131 5.36619 0.263684 5.95736 0.748338 6.35623C1.247 6.78534 1.86667 6.9999 2.60734 6.9999C3.47504 6.9999 4.17024 6.62442 4.69295 5.87348H4.74783V6.78534H5.95528V2.73559C5.95581 1.88656 5.68609 1.21837 5.14613 0.731024ZM1.72357 5.57869C1.45914 5.39241 1.30317 5.09268 1.30488 4.77411C1.30488 4.41626 1.47659 4.11818 1.82236 3.87297C2.16474 3.63134 2.59231 3.51052 3.10509 3.51052C3.80917 3.51052 4.35801 3.66378 4.75161 3.97029C4.75161 4.48829 4.54253 4.93962 4.12436 5.32429C3.74773 5.69244 3.23712 5.89966 2.70443 5.90053C2.34928 5.90702 2.00276 5.79332 1.72357 5.57869Z" fill="#5F6368"/>
</svg>
