<svg width="6" height="9" viewBox="0 0 6 9" fill="none" xmlns="http://www.w3.org/2000/svg">
<path fill-rule="evenodd" clip-rule="evenodd" d="M1.17914 8.97136V5.33882V5.33811H3.12729C3.93047 5.33858 4.60549 5.08401 5.15233 4.57438C5.70498 4.09071 6.01395 3.39529 5.99824 2.67043C6.00918 1.9496 5.70076 1.25933 5.15233 0.777215C4.61029 0.264795 3.88126 -0.0147888 3.12729 0.000603503H0V8.97136H1.17914ZM1.17925 4.23645V1.10495V1.10424H3.15669C3.59742 1.09213 4.02227 1.26546 4.32338 1.58023C4.62634 1.86809 4.79726 2.26348 4.79726 2.67643C4.79726 3.08938 4.62634 3.48477 4.32338 3.77263C4.01857 4.08077 3.59503 4.24915 3.15669 4.23645H1.17925Z" fill="#5F6368"/>
</svg>
