<svg width="10" height="24" viewBox="0 0 10 24" fill="none" xmlns="http://www.w3.org/2000/svg">
<path fill-rule="evenodd" clip-rule="evenodd" d="M0 13.8792V4.00034C0 3.72169 0.0285276 3.4497 0.0827363 3.18711C0.0943776 3.13073 0.107298 3.07486 0.121274 3.01937C0.133235 2.97185 0.146124 2.92471 0.15978 2.8779C0.171965 2.83617 0.184821 2.79476 0.198286 2.75361C0.210631 2.71595 0.223391 2.67845 0.236823 2.64126C0.249264 2.60686 0.261993 2.57266 0.275329 2.53871C0.28777 2.50696 0.300627 2.47531 0.313867 2.44396C0.326372 2.41439 0.339196 2.38501 0.352373 2.35583C0.36491 2.32809 0.377766 2.30057 0.390879 2.27317C0.403415 2.247 0.416336 2.22102 0.429416 2.19516C0.441985 2.17033 0.454842 2.14569 0.467922 2.12118C0.480523 2.09753 0.49338 2.07404 0.506428 2.05068C0.519061 2.02806 0.531885 2.00556 0.544966 1.98323C0.557631 1.96153 0.570391 1.9399 0.583472 1.91846C0.596136 1.89773 0.608993 1.87715 0.622009 1.85667C0.63461 1.83683 0.647563 1.81712 0.660515 1.7975C0.673212 1.7783 0.686005 1.75917 0.699021 1.74019C0.711814 1.72157 0.724478 1.70298 0.737559 1.68458C0.750192 1.66682 0.763144 1.64928 0.776065 1.63171C0.788793 1.61443 0.801618 1.59728 0.814602 1.58023C0.827363 1.56346 0.840092 1.54656 0.853108 1.52999C0.865773 1.51389 0.878725 1.49805 0.891614 1.48215C0.904343 1.46644 0.917167 1.45079 0.930152 1.43527C0.942912 1.42001 0.955673 1.40477 0.968658 1.3897C0.981354 1.37495 0.994275 1.36045 1.0072 1.3459C1.01996 1.33146 1.03272 1.31706 1.0457 1.30286C1.0584 1.28894 1.07132 1.27521 1.08421 1.26148C1.09697 1.24788 1.10979 1.23441 1.12274 1.221C1.13551 1.20779 1.1483 1.19457 1.16125 1.18151C1.17398 1.16868 1.1869 1.15604 1.19979 1.1434C1.21261 1.13083 1.22531 1.11816 1.23829 1.10577C1.25099 1.09364 1.26394 1.0818 1.2768 1.06984C1.28962 1.0579 1.30235 1.04593 1.31534 1.03419C1.32807 1.02267 1.34099 1.01137 1.35384 1.00001C1.36667 0.988718 1.37943 0.97739 1.39238 0.966254C1.40514 0.955278 1.418 0.944495 1.43089 0.933679C1.44365 0.922959 1.45647 0.912239 1.46939 0.901679C1.48215 0.891248 1.49504 0.880912 1.50793 0.870608C1.52072 0.8604 1.53352 0.850288 1.54644 0.840241C1.5592 0.830289 1.57209 0.820465 1.58497 0.810673C1.59777 0.800977 1.61059 0.791313 1.62348 0.781778L1.66199 0.753682C1.67478 0.744434 1.6876 0.735251 1.70052 0.726163C1.71328 0.717171 1.72614 0.708275 1.73903 0.699443C1.75182 0.690643 1.76465 0.681907 1.77754 0.673268C1.79033 0.664724 1.80318 0.656308 1.81607 0.647892C1.82887 0.63954 1.84166 0.631124 1.85458 0.622901C1.86734 0.614773 1.88023 0.606837 1.89312 0.598837C1.90594 0.590869 1.9187 0.582805 1.93162 0.574997C1.94435 0.567286 1.95727 0.559798 1.97013 0.552214C1.98298 0.54463 1.99571 0.536918 2.00867 0.529462C2.02139 0.522134 2.03435 0.515127 2.04717 0.507927C2.06003 0.500727 2.07279 0.493431 2.08571 0.486359C2.09847 0.479383 2.11136 0.472663 2.12422 0.465847C2.13704 0.459032 2.14983 0.452184 2.16272 0.445496C2.17551 0.438872 2.18837 0.432376 2.20126 0.42588L2.23976 0.406745C2.25259 0.400441 2.26541 0.394137 2.2783 0.387993C2.2911 0.381881 2.30395 0.375961 2.31681 0.369977C2.32966 0.363993 2.34239 0.357881 2.35531 0.352058C2.36807 0.346266 2.381 0.340826 2.39385 0.335194C2.40668 0.329562 2.41947 0.323834 2.43236 0.31833C2.44515 0.31289 2.45804 0.307642 2.4709 0.30233L2.5094 0.286587L2.54791 0.271291L2.58644 0.256635C2.5993 0.251771 2.61203 0.246747 2.62495 0.242012C2.63771 0.23734 2.65066 0.232988 2.66349 0.228444C2.67631 0.2239 2.68911 0.219292 2.70199 0.214876L2.7405 0.20198L2.77904 0.189469C2.79186 0.185373 2.80466 0.181181 2.81754 0.177213C2.8303 0.173277 2.84322 0.169533 2.85605 0.165725C2.86891 0.161885 2.8817 0.157981 2.89459 0.154269C2.90738 0.150589 2.92024 0.147165 2.93309 0.143613L2.97163 0.13315C2.98446 0.129758 2.99725 0.126302 3.01014 0.123038C3.02293 0.119774 3.03582 0.116798 3.04864 0.113662C3.06147 0.110526 3.07429 0.107262 3.08718 0.104254C3.09997 0.101278 3.11286 0.0984942 3.12569 0.0956462L3.16422 0.0872624C3.17705 0.0845105 3.18984 0.0817265 3.20273 0.0791346C3.21552 0.0765746 3.22841 0.0742066 3.24124 0.0717427C3.25409 0.0692787 3.26688 0.0667188 3.27977 0.0643828C3.2926 0.0620469 3.30542 0.0599349 3.31828 0.0577269L3.35682 0.0513271C3.36964 0.0492791 3.38243 0.0470711 3.39532 0.0451192C3.40812 0.0431672 3.421 0.0415352 3.43383 0.0397113C3.44665 0.0379193 3.45948 0.0359993 3.47237 0.0343034L3.51087 0.0294715L3.54941 0.0250875C3.56227 0.0236476 3.57503 0.0219836 3.58792 0.0206716C3.60071 0.0193596 3.6136 0.0183997 3.62642 0.0172157L3.66496 0.0138237C3.67778 0.0127358 3.69061 0.0116798 3.70346 0.0107518C3.71629 0.00982382 3.72915 0.00908783 3.742 0.00828785C3.75486 0.00748786 3.76765 0.00655988 3.78051 0.00585589C3.7933 0.00515191 3.80616 0.00467191 3.81901 0.00409592L3.85755 0.00262395C3.87038 0.00217596 3.88317 0.00150397 3.89606 0.00118398C3.90885 0.000863984 3.92174 0.000895984 3.93456 0.000703987C3.94739 0.000511991 3.96025 0.000287995 3.9731 0.000223996L4.01161 0H4.05015H4.08865H4.12716H4.16569H4.2042H4.24274H4.28124H4.31975H4.35829H4.39679H4.43533H4.47384H4.51234H4.55088H4.58939H4.62792H4.66643H4.70494H4.74347H4.78198H4.82052H4.85902H4.89753H4.93607H4.97457H5.01311H5.05162H5.09012H5.12866H5.16716H5.2057H5.24421H5.28271H5.32125H5.35976H5.39826H5.4368H5.47531H5.51385H5.55235H5.59086H5.62939H5.6679H5.70644H5.74494H5.78345H5.82199H5.86049H5.89903H5.93754H5.97604H6.01458H6.05309H6.09162H6.13013H6.16864H6.20717H6.24568H6.28419H6.32272H6.36123H6.39977H6.43827H6.47681H6.51532H6.55382H6.59236H6.63087H6.66937H6.70791H6.74642H6.78495H6.82346H6.86196H6.9005H6.93901H6.97755H7.01605H7.05456H7.09309H7.1316H7.17014H7.20864H7.24715H7.28569H7.32419H7.3627H7.40124H7.43974H7.47828H7.51679H7.55532H7.59383H7.63234H7.67087H7.70938H7.74792H7.78642H7.82493H7.86347H7.90197H7.94048H7.97902H8.01752H8.05606H8.09457H8.1331H8.17161H8.21011H8.24865H8.28716H8.32566H8.3642H8.40271H8.44125H8.47975H8.51826H8.5568H8.5953H8.63381H8.67234H8.71085H8.74939H8.78789H8.82643H8.86494H8.90344H8.94198H8.98049H9.01899H9.05753H9.09604H9.13457H9.17308H9.21159H9.25012H9.28863H9.32717H9.36567H9.40418H9.44272H9.48122H9.51976H9.55827H9.59677H9.63531H9.67381H9.71232H9.75086H9.78936H9.8279H9.86059V20.0002C9.86059 20.1742 9.84943 20.3456 9.8279 20.5137C9.81754 20.5947 9.80449 20.6748 9.78936 20.7541C9.77785 20.8145 9.76506 20.8744 9.75086 20.9338C9.7389 20.9838 9.7261 21.0334 9.71232 21.0827C9.7002 21.1259 9.68731 21.1689 9.67381 21.2115C9.66157 21.25 9.64868 21.2883 9.63531 21.3264C9.62293 21.3617 9.61011 21.3967 9.59677 21.4315C9.58433 21.464 9.57151 21.4962 9.55827 21.5283C9.54579 21.5585 9.53294 21.5885 9.51976 21.6183C9.50722 21.6466 9.49437 21.6747 9.48122 21.7026C9.46869 21.7293 9.45583 21.7558 9.44272 21.7821C9.43012 21.8074 9.41729 21.8325 9.40418 21.8575C9.39158 21.8815 9.37875 21.9054 9.36567 21.9291C9.35301 21.9521 9.34028 21.975 9.32717 21.9977C9.31453 22.0196 9.30168 22.0413 9.28863 22.063C9.27603 22.0839 9.26311 22.1046 9.25012 22.1253C9.23746 22.1454 9.2246 22.1655 9.21159 22.1854C9.19886 22.2049 9.18613 22.2244 9.17308 22.2436C9.16041 22.2623 9.14753 22.2808 9.13457 22.2992C9.12191 22.3173 9.10902 22.3351 9.09604 22.3529C9.08331 22.3704 9.07052 22.3879 9.05753 22.4052C9.04483 22.4221 9.03198 22.4388 9.01899 22.4555C9.0063 22.4718 8.99341 22.4879 8.98049 22.504C8.96773 22.5199 8.95497 22.5358 8.94198 22.5515C8.92928 22.5668 8.91636 22.582 8.90344 22.5971C8.89071 22.612 8.87789 22.6268 8.86494 22.6415C8.85214 22.656 8.83942 22.6706 8.82643 22.685C8.81373 22.699 8.80078 22.7127 8.78789 22.7266C8.7751 22.7403 8.76237 22.7541 8.74939 22.7676C8.73666 22.7809 8.72377 22.794 8.71085 22.8071C8.69809 22.8201 8.6853 22.8329 8.67234 22.8457C8.65958 22.8584 8.64676 22.8709 8.63381 22.8834C8.62108 22.8956 8.60819 22.9077 8.5953 22.9198C8.58251 22.9318 8.56975 22.9439 8.5568 22.9557C8.54407 22.9673 8.53115 22.9787 8.51826 22.9902C8.50543 23.0016 8.49274 23.0131 8.47975 23.0243C8.46705 23.0354 8.45407 23.0461 8.44125 23.057C8.42842 23.0678 8.41566 23.0787 8.40271 23.0894C8.38998 23.0999 8.37706 23.1102 8.3642 23.1205C8.35138 23.1308 8.33862 23.1412 8.32566 23.1514C8.31294 23.1613 8.30002 23.1711 8.28716 23.1809C8.27433 23.1907 8.26161 23.2005 8.24865 23.2102C8.23592 23.2197 8.22297 23.2289 8.21011 23.2383C8.19729 23.2476 8.18456 23.257 8.17161 23.2662C8.15888 23.2752 8.14596 23.2841 8.1331 23.2929C8.12025 23.3018 8.10752 23.3108 8.09457 23.3195C8.08184 23.3281 8.06892 23.3365 8.05606 23.3449C8.0432 23.3534 8.03047 23.362 8.01752 23.3703C8.00479 23.3785 7.99184 23.3863 7.97902 23.3943C7.96619 23.4024 7.95343 23.4105 7.94048 23.4184C7.92772 23.4262 7.9148 23.4337 7.90197 23.4413C7.88915 23.4489 7.87639 23.4566 7.86347 23.4641C7.85067 23.4715 7.83782 23.4787 7.82493 23.486C7.81214 23.4932 7.79931 23.5005 7.78642 23.5075C7.77363 23.5146 7.76081 23.5216 7.74792 23.5284L7.70938 23.5488C7.69655 23.5555 7.68376 23.5622 7.67087 23.5687C7.65808 23.5752 7.64523 23.5815 7.63234 23.5879C7.61951 23.5942 7.60675 23.6008 7.59383 23.607C7.58107 23.6131 7.56815 23.619 7.55532 23.625C7.54247 23.631 7.52971 23.6371 7.51679 23.643C7.50403 23.6488 7.49111 23.6544 7.47828 23.6601L7.43974 23.6769L7.40124 23.6933C7.38844 23.6986 7.37556 23.7038 7.3627 23.709C7.34988 23.7143 7.33708 23.7196 7.32419 23.7247C7.31143 23.7297 7.29854 23.7344 7.28569 23.7393C7.27283 23.7442 7.26007 23.7492 7.24715 23.7539C7.23436 23.7587 7.2215 23.7632 7.20864 23.7678L7.17014 23.7814L7.1316 23.7946C7.11881 23.7989 7.10592 23.803 7.09309 23.8071C7.08024 23.8112 7.06748 23.8156 7.05456 23.8196C7.0418 23.8236 7.02888 23.8273 7.01605 23.8311L6.97755 23.8426L6.93901 23.8536C6.92622 23.8572 6.91336 23.8606 6.9005 23.864C6.88765 23.8675 6.87485 23.8711 6.86196 23.8744C6.8492 23.8777 6.83625 23.8806 6.82346 23.8838C6.81063 23.887 6.79781 23.8902 6.78495 23.8932L6.74642 23.9021L6.70791 23.9105C6.69505 23.9133 6.68229 23.9163 6.66937 23.9189C6.65658 23.9215 6.64369 23.9238 6.63087 23.9263C6.61804 23.9288 6.60522 23.9313 6.59236 23.9337L6.55382 23.9406C6.54103 23.9429 6.52817 23.9449 6.51532 23.947C6.50246 23.9491 6.48967 23.9514 6.47681 23.9534C6.46402 23.9554 6.45113 23.957 6.43827 23.9589L6.39977 23.9643C6.38694 23.966 6.37412 23.9678 6.36123 23.9694C6.34844 23.971 6.33555 23.9723 6.32272 23.9738C6.30987 23.9753 6.29707 23.9769 6.28419 23.9782C6.27139 23.9796 6.25854 23.9807 6.24568 23.9819L6.20717 23.9854C6.19432 23.9864 6.18152 23.9878 6.16864 23.9887C6.15584 23.9897 6.14295 23.9903 6.13013 23.9912L6.09162 23.9936L6.05309 23.9957C6.04029 23.9963 6.02741 23.9966 6.01458 23.9971C6.00172 23.9976 5.9889 23.9982 5.97604 23.9986C5.96325 23.999 5.95036 23.9991 5.93754 23.9993L5.89903 23.9998C5.88713 23.9999 5.87527 24.0003 5.86331 24.0003H5.82199H5.78345H5.74494H5.70644H5.6679H5.62939H5.59086H5.55235H5.51385H5.47531H5.4368H5.39826H5.35976H5.32125H5.28271H5.24421H5.2057H5.16716H5.12866H5.09012H5.05162H5.01311H4.97457H4.93607H4.89753H4.85902H4.82052H4.78198H4.74347H4.70494H4.66643H4.62792H4.58939H4.55088H4.51234H4.47384H4.43533H4.39679H4.35829H4.31975H4.28124H4.24274H4.2042H4.16569H4.12716H4.08865H4.05015H4.01161H3.9731H3.93456H3.89606H3.85755H3.81901H3.78051H3.742H3.70346H3.66496H3.62642H3.58792H3.54941H3.51087H3.47237H3.43383H3.39532H3.35682H3.31828H3.27977H3.24124H3.20273H3.16422H3.12569H3.08718H3.04864H3.01014H2.97163H2.93309H2.89459H2.85605H2.81754H2.77904H2.7405H2.70199H2.66349H2.62495H2.58644H2.54791H2.5094H2.4709H2.43236H2.39385H2.35531H2.31681H2.2783H2.23976H2.20126H2.16272H2.12422H2.08571H2.04717H2.00867H1.97013H1.93162H1.89312H1.85458H1.81607H1.77754H1.73903H1.70052H1.66199H1.62348H1.58497H1.54644H1.50793H1.46939H1.43089H1.39238H1.35384H1.31534H1.2768H1.23829H1.19979H1.16125H1.12274H1.08421H1.0457H1.0072H0.968658H0.930152H0.891614H0.853108H0.814602H0.776065H0.737559H0.699021H0.660515H0.622009H0.583472H0.544966H0.506428H0.467922H0.429416H0.390879H0.352373H0.313867H0.275329H0.236823H0.198286H0.15978H0.121274H0.0827363H0V15.5704C0 15.5704 0.0284636 15.5782 0.0827363 15.5919L0.121274 15.6015L0.15978 15.6109L0.198286 15.6202L0.236823 15.6293L0.275329 15.6383L0.313867 15.6471L0.352373 15.6558L0.390879 15.6644L0.429416 15.6728L0.467922 15.6812L0.506428 15.6894L0.544966 15.6975L0.583472 15.7056L0.622009 15.7134L0.660515 15.7212L0.699021 15.729L0.737559 15.7366L0.776065 15.7441L0.814602 15.7515L0.853108 15.7588L0.891614 15.766L0.930152 15.7732L0.968658 15.7802L1.0072 15.7872L1.0457 15.794L1.08421 15.8008L1.12274 15.8075L1.16125 15.814L1.19979 15.8205L1.23829 15.8269L1.2768 15.8333L1.31534 15.8395L1.35384 15.8457L1.39238 15.8517L1.43089 15.8577L1.46939 15.8636L1.50793 15.8694L1.54644 15.8752L1.58497 15.8808L1.62348 15.8864L1.66199 15.8918L1.70052 15.8972L1.73903 15.9025L1.77754 15.9078L1.81607 15.9129L1.85458 15.9179L1.89312 15.9229L1.93162 15.9278L1.97013 15.9326L2.00867 15.9373L2.04717 15.942L2.08571 15.9465L2.12422 15.951L2.16272 15.9554L2.20126 15.9597L2.23976 15.964L2.2783 15.9681L2.31681 15.9722L2.35531 15.9761L2.39385 15.9801L2.43236 15.9838L2.4709 15.9876L2.5094 15.9913L2.54791 15.9948L2.58644 15.9983L2.62495 16.0017L2.66349 16.005L2.70199 16.0082L2.7405 16.0114L2.77904 16.0145L2.81754 16.0174L2.85605 16.0203L2.89459 16.0231L2.93309 16.0258L2.97163 16.0285L3.01014 16.031L3.04864 16.0335L3.08718 16.0359L3.12569 16.0382L3.16422 16.0404L3.20273 16.0425L3.24124 16.0446L3.27977 16.0466L3.31828 16.0484L3.35682 16.0502L3.39532 16.0519L3.43383 16.0535L3.47237 16.0551L3.51087 16.0564L3.54941 16.0578L3.58792 16.0591L3.62642 16.0602L3.66496 16.0613L3.70346 16.0623L3.742 16.0632L3.78051 16.0641L3.81901 16.0647L3.85755 16.0653L3.89606 16.0659L3.93456 16.0663L3.9731 16.0667L4.01161 16.067L4.05015 16.0671L4.08865 16.0672L4.12716 16.0672L4.16569 16.0669L4.2042 16.0667L4.24274 16.0665L4.28124 16.0662L4.31975 16.0655L4.35829 16.0648L4.39679 16.0641L4.43533 16.0634L4.47384 16.0625L4.51234 16.0612L4.55088 16.0601L4.58939 16.0589L4.62792 16.0576L4.66643 16.0559L4.70494 16.0542L4.74347 16.0525L4.78198 16.0508L4.82052 16.0486L4.85902 16.0464L4.89753 16.0442L4.93607 16.0419L4.97457 16.0394L5.01311 16.0366L5.05162 16.0338L5.09012 16.0311L5.12866 16.028L5.16716 16.0247L5.2057 16.0213L5.24421 16.018L5.28271 16.0144L5.32125 16.0104L5.35976 16.0065L5.39826 16.0026L5.4368 15.9983L5.47531 15.9938L5.51385 15.9892L5.55235 15.9847L5.59086 15.9797L5.62939 15.9746L5.6679 15.9694L5.70644 15.9642C5.71942 15.9623 5.73206 15.9603 5.74494 15.9584L5.78345 15.9526L5.82199 15.9467L5.86049 15.9406C5.87345 15.9386 5.88614 15.9363 5.89903 15.9341L5.93754 15.9277C5.9503 15.9255 5.96338 15.9234 5.97604 15.9212C5.98903 15.9189 6.00166 15.9164 6.01458 15.914L6.05309 15.9068L6.09162 15.8996L6.13013 15.8921C6.14308 15.8895 6.15578 15.8868 6.16864 15.8842L6.20717 15.8762L6.24568 15.8682C6.2587 15.8654 6.2713 15.8624 6.28419 15.8595L6.32272 15.8508C6.33548 15.8478 6.34856 15.8451 6.36123 15.8421C6.37425 15.839 6.38688 15.8358 6.39977 15.8327L6.43827 15.8232C6.45107 15.82 6.46411 15.817 6.47681 15.8137C6.48976 15.8104 6.50249 15.807 6.51532 15.8036L6.55382 15.7933C6.56665 15.7899 6.57966 15.7865 6.59236 15.783C6.60531 15.7794 6.61804 15.7757 6.63087 15.7721L6.66937 15.7609C6.6822 15.7572 6.69521 15.7535 6.70791 15.7497L6.74642 15.7379L6.78495 15.7258C6.79775 15.7218 6.81079 15.7178 6.82346 15.7137L6.86196 15.7009L6.9005 15.6878C6.91329 15.6834 6.92637 15.6792 6.93901 15.6748C6.95202 15.6702 6.96466 15.6654 6.97755 15.6608L7.01605 15.6467C7.02888 15.642 7.04186 15.6373 7.05456 15.6324C7.06757 15.6275 7.08024 15.6224 7.09309 15.6174C7.10595 15.6124 7.1189 15.6074 7.1316 15.6023L7.17014 15.5866L7.20864 15.5704C7.22144 15.565 7.23452 15.5597 7.24715 15.5542C7.2602 15.5486 7.2728 15.5427 7.28569 15.5369L7.32419 15.5196L7.3627 15.5017C7.37565 15.4956 7.38844 15.4893 7.40124 15.4831C7.41406 15.4769 7.42711 15.4708 7.43974 15.4645C7.45279 15.4579 7.46542 15.4512 7.47828 15.4446C7.49114 15.438 7.50412 15.4315 7.51679 15.4248C7.5298 15.418 7.5425 15.4109 7.55532 15.404C7.56824 15.397 7.5811 15.3899 7.59383 15.3828C7.60678 15.3756 7.61961 15.3683 7.63234 15.361C7.64532 15.3535 7.65811 15.3459 7.67087 15.3383C7.68376 15.3307 7.69668 15.323 7.70938 15.3153C7.7224 15.3073 7.73512 15.2993 7.74792 15.2912C7.76081 15.2831 7.77376 15.275 7.78642 15.2668C7.79944 15.2583 7.81214 15.2497 7.82493 15.2411C7.83782 15.2324 7.8508 15.2238 7.86347 15.2151C7.87651 15.2061 7.88918 15.1969 7.90197 15.1877C7.91486 15.1785 7.92785 15.1693 7.94048 15.1599C7.95353 15.1503 7.96626 15.1405 7.97902 15.1308C7.99197 15.1209 8.00486 15.1109 8.01752 15.1009C8.03051 15.0906 8.04333 15.0802 8.05606 15.0698C8.06904 15.0591 8.08187 15.0484 8.09457 15.0376C8.10752 15.0266 8.12047 15.0156 8.1331 15.0045C8.14618 14.9929 8.15885 14.9812 8.17161 14.9695C8.18453 14.9577 8.19751 14.9459 8.21011 14.9339C8.2232 14.9214 8.23596 14.9088 8.24865 14.8962C8.26167 14.8833 8.27449 14.8703 8.28716 14.8572C8.30011 14.8438 8.3131 14.8304 8.32566 14.8169C8.33878 14.8027 8.35147 14.7884 8.3642 14.774C8.37728 14.7593 8.39008 14.7444 8.40271 14.7295C8.41572 14.7141 8.42868 14.6986 8.44125 14.683C8.45429 14.6668 8.46718 14.6506 8.47975 14.6342C8.4929 14.617 8.50562 14.5996 8.51826 14.5822C8.5314 14.5641 8.5442 14.5459 8.5568 14.5275C8.56994 14.5084 8.58276 14.4891 8.5953 14.4697C8.60845 14.4493 8.6213 14.4288 8.63381 14.4081C8.64698 14.3863 8.65987 14.3644 8.67234 14.3422C8.68558 14.3188 8.69841 14.2952 8.71085 14.2714C8.72415 14.2459 8.73698 14.2203 8.74939 14.1944C8.76276 14.1667 8.77555 14.1386 8.78789 14.1104C8.80129 14.0798 8.81418 14.0489 8.82643 14.0178C8.83993 13.9835 8.85282 13.9488 8.86494 13.9139C8.87869 13.8743 8.89145 13.8343 8.90344 13.7939C8.91745 13.7468 8.93028 13.6991 8.94198 13.651C8.9565 13.5913 8.96939 13.531 8.98049 13.47C8.99699 13.3791 9.00972 13.2868 9.01899 13.1933C9.03195 13.0629 9.03825 12.9302 9.03825 12.7954V8.15428H8.98049H8.94198H8.90344H8.86494H8.82643H8.78789H8.74939H8.71085H8.67234H8.63381H8.5953H8.5568H8.51826H8.47975H8.44125H8.40271H8.3642H8.32566H8.28716H8.24865H8.21011H8.17161H8.1331H8.09457H8.05606H8.01752H7.97902H7.94048H7.90197H7.86347H7.82493H7.78642H7.74792H7.70938H7.67087H7.63234H7.59383H7.55532H7.51679H7.47828H7.43974H7.40124H7.3627H7.32419H7.28569H7.24715H7.20864H7.17014H7.1316H7.09309H7.05456H7.01605H6.97755H6.93901H6.9005H6.86196H6.82346H6.78495H6.74642H6.70791H6.66937H6.63087H6.59236H6.55382H6.51532H6.47681H6.43827H6.39977H6.36123H6.32272H6.28419H6.24568H6.20717H6.16864H6.13013H6.09162H6.05309H6.01458H5.97604H5.93754H5.89903H5.86049H5.82199H5.78345H5.74494H5.70644H5.6679H5.62939L5.6002 12.7954C5.6002 12.868 5.59703 12.9395 5.59086 13.0096C5.58299 13.0989 5.5701 13.186 5.55235 13.2707C5.54138 13.323 5.52852 13.3743 5.51385 13.4246C5.50214 13.4648 5.48935 13.5043 5.47531 13.5431C5.46335 13.5761 5.45046 13.6086 5.4368 13.6407C5.42462 13.6693 5.41179 13.6975 5.39826 13.7253C5.38595 13.7505 5.37319 13.7755 5.35976 13.8001C5.34741 13.8227 5.33449 13.8448 5.32125 13.8668C5.30881 13.8874 5.29599 13.9078 5.28271 13.9278C5.27024 13.9467 5.25739 13.9652 5.24421 13.9835C5.23167 14.001 5.21891 14.0183 5.2057 14.0353C5.19317 14.0514 5.18028 14.0672 5.16716 14.0829C5.1546 14.0979 5.14177 14.1127 5.12866 14.1273C5.11606 14.1414 5.10323 14.1553 5.09012 14.169C5.07749 14.1821 5.0647 14.1952 5.05162 14.208C5.03898 14.2204 5.02616 14.2327 5.01311 14.2447C5.00048 14.2564 4.98759 14.2678 4.97457 14.2791C4.96194 14.2901 4.94908 14.301 4.93607 14.3116C4.9234 14.322 4.91051 14.3322 4.89753 14.3423C4.88486 14.3521 4.87201 14.3617 4.85902 14.3713C4.84633 14.3805 4.8335 14.3897 4.82052 14.3987C4.80782 14.4075 4.795 14.4161 4.78198 14.4247C4.76928 14.433 4.75646 14.4412 4.74347 14.4492C4.73078 14.4571 4.71792 14.4649 4.70494 14.4725C4.69224 14.4799 4.67938 14.4872 4.66643 14.4945C4.65373 14.5015 4.64088 14.5084 4.62792 14.5153C4.6152 14.522 4.60237 14.5285 4.58939 14.535C4.57666 14.5413 4.56383 14.5476 4.55088 14.5537C4.53812 14.5597 4.52533 14.5657 4.51234 14.5715C4.49958 14.5772 4.48679 14.5828 4.47384 14.5883C4.46114 14.5937 4.44825 14.5989 4.43533 14.604C4.4226 14.6091 4.40971 14.6141 4.39679 14.6189C4.38403 14.6237 4.37124 14.6284 4.35829 14.633C4.34553 14.6376 4.3327 14.6421 4.31975 14.6464C4.30702 14.6507 4.29416 14.6548 4.28124 14.6589C4.26852 14.6629 4.25563 14.6667 4.24274 14.6705C4.22998 14.6743 4.21712 14.678 4.2042 14.6816C4.19141 14.6851 4.17861 14.6887 4.16569 14.692C4.15293 14.6953 4.14008 14.6985 4.12716 14.7016C4.11443 14.7046 4.10157 14.7076 4.08865 14.7105C4.07589 14.7133 4.06307 14.7161 4.05015 14.7188C4.03735 14.7215 4.02456 14.7241 4.01161 14.7265C3.99885 14.7289 3.98599 14.7312 3.9731 14.7335C3.96031 14.7357 3.94748 14.738 3.93456 14.74L3.89606 14.7459C3.8833 14.7478 3.87044 14.7495 3.85755 14.7512C3.84476 14.7529 3.83197 14.7545 3.81901 14.756L3.78051 14.7603C3.76775 14.7616 3.75489 14.7628 3.742 14.764C3.72918 14.7651 3.71639 14.7663 3.70346 14.7673C3.6907 14.7683 3.67785 14.7692 3.66496 14.77C3.65217 14.7708 3.63931 14.7715 3.62642 14.7722C3.6136 14.7729 3.60084 14.7736 3.58792 14.7741C3.57516 14.7746 3.56227 14.7749 3.54941 14.7752L3.51087 14.7761C3.49811 14.7764 3.48525 14.7764 3.47237 14.7765L3.43383 14.7766L3.39532 14.7763L3.35682 14.7758L3.31828 14.775L3.27977 14.7739L3.24124 14.7727L3.20273 14.7711L3.16422 14.7693L3.12569 14.7674L3.08718 14.7651L3.04864 14.7626L3.01014 14.7599L2.97163 14.7568L2.93309 14.7536L2.89459 14.7502L2.85605 14.7465L2.81754 14.7425L2.77904 14.7384L2.7405 14.734L2.70199 14.7293L2.66349 14.7244L2.62495 14.7193L2.58644 14.714L2.54791 14.7084L2.5094 14.7026L2.4709 14.6966L2.43236 14.6903L2.39385 14.6839L2.35531 14.6772L2.31681 14.6702L2.2783 14.6631L2.23976 14.6557L2.20126 14.6481L2.16272 14.6403L2.12422 14.6322L2.08571 14.624L2.04717 14.6155L2.00867 14.6068L1.97013 14.598L1.93162 14.5889L1.89312 14.5795L1.85458 14.57L1.81607 14.5603L1.77754 14.5502L1.73903 14.5401L1.70052 14.5297L1.66199 14.5191L1.62348 14.5083L1.58497 14.4973L1.54644 14.4862L1.50793 14.4747L1.46939 14.4631L1.43089 14.4513L1.39238 14.4393L1.35384 14.4271L1.31534 14.4147L1.2768 14.4021L1.23829 14.3893L1.19979 14.3763L1.16125 14.3631L1.12274 14.3497L1.08421 14.3361L1.0457 14.3223L1.0072 14.3084L0.968658 14.2942L0.930152 14.2799L0.891614 14.2654L0.853108 14.2507L0.814602 14.2358L0.776065 14.2207L0.737559 14.2054L0.699021 14.19L0.660515 14.1744L0.622009 14.1586L0.583472 14.1426L0.544966 14.1264L0.506428 14.11L0.467922 14.0935L0.429416 14.0769L0.390879 14.0599L0.352373 14.0429L0.313867 14.0257L0.275329 14.0083L0.236823 13.9908L0.198286 13.9731L0.15978 13.9552L0.121274 13.9371L0.0827363 13.9189C0.0551362 13.9057 0.0275681 13.8925 0 13.8792Z" fill="#006CB9"/>
</svg>
