<svg width="10" height="24" viewBox="0 0 10 24" fill="none" xmlns="http://www.w3.org/2000/svg">
<path fill-rule="evenodd" clip-rule="evenodd" d="M1.95276 12.4872H1.97272H2.01129H2.04986H2.08846H2.12703H2.1656H2.2042H2.24277H2.28137H2.31994H2.35851H2.39711H2.43568H2.47425H2.51285H2.55142H2.58999H2.6286H2.66717H2.70573H2.74434H2.78291H2.82148H2.86008H2.89865H2.93722H2.97582H3.01439H3.05296H3.09156H3.13013H3.16873H3.2073H3.24587H3.28447H3.32304H3.36161H3.40021H3.43878H3.47735H3.51596H3.55453H3.59309H3.6317H3.67027H3.70884H3.74744H3.78601H3.82458H3.86318H3.90175H3.94032H3.97892H4.01749H4.05606H4.09466H4.13323H4.17183H4.2104H4.24897H4.28108L4.28757 12.4873C4.29947 12.4876 4.31246 12.4882 4.32614 12.4889C4.33852 12.4896 4.35147 12.4904 4.36471 12.4914C4.37741 12.4924 4.39036 12.4935 4.40332 12.4946C4.4163 12.4958 4.42922 12.4971 4.44188 12.4985C4.45516 12.5 4.46814 12.5016 4.48045 12.5032C4.49427 12.5051 4.50729 12.507 4.51906 12.509C4.52753 12.5105 4.53537 12.5119 4.54237 12.5135L4.55763 12.5169C4.57055 12.5199 4.5834 12.5232 4.5962 12.5267C4.60915 12.5303 4.62201 12.5341 4.6348 12.5382C4.64775 12.5423 4.66061 12.5467 4.67337 12.5513C4.68632 12.556 4.69918 12.561 4.71194 12.5662C4.72492 12.5715 4.73778 12.5771 4.75054 12.583C4.76352 12.5889 4.77638 12.5951 4.78911 12.6016C4.80209 12.6082 4.81495 12.6151 4.82768 12.6223C4.8407 12.6296 4.85358 12.6373 4.86628 12.6452C4.8793 12.6533 4.89219 12.6616 4.90485 12.6703C4.9179 12.6793 4.93079 12.6885 4.94342 12.6981C4.9565 12.7079 4.96939 12.7182 4.98202 12.7287C4.99513 12.7396 5.00799 12.7509 5.02059 12.7625C5.03377 12.7746 5.04666 12.787 5.05919 12.7998C5.07243 12.8133 5.08526 12.8272 5.09776 12.8414C5.11104 12.8566 5.12389 12.8721 5.13633 12.8881C5.14973 12.9053 5.16259 12.9229 5.17493 12.941C5.18843 12.9609 5.20132 12.9812 5.2135 13.0021C5.22726 13.0257 5.24011 13.0499 5.25207 13.0748C5.26627 13.1043 5.27919 13.1347 5.29068 13.166C5.30612 13.208 5.31904 13.2516 5.32925 13.2965C5.3469 13.3744 5.3564 13.4565 5.3564 13.5422C5.3564 13.6283 5.34693 13.7107 5.32925 13.7889C5.31904 13.834 5.30612 13.8777 5.29068 13.9198C5.27916 13.9511 5.26627 13.9816 5.25207 14.0112C5.24011 14.0361 5.22726 14.0603 5.2135 14.0839C5.20132 14.1048 5.18846 14.1252 5.17493 14.145C5.16259 14.1632 5.1497 14.1808 5.13633 14.198C5.12389 14.214 5.11104 14.2295 5.09776 14.2446C5.08526 14.2589 5.0724 14.2727 5.05919 14.2862C5.04666 14.299 5.03374 14.3114 5.02059 14.3235C5.00799 14.3351 4.99513 14.3463 4.98202 14.3572C4.96939 14.3677 4.95653 14.3779 4.94342 14.3877C4.93079 14.3972 4.9179 14.4064 4.90485 14.4153C4.89219 14.424 4.8793 14.4324 4.86628 14.4404C4.85358 14.4483 4.8407 14.4559 4.82768 14.4632C4.81498 14.4703 4.80213 14.4772 4.78911 14.4838C4.77638 14.4902 4.76352 14.4964 4.75054 14.5023C4.73778 14.5081 4.72492 14.5136 4.71194 14.5189C4.69918 14.524 4.68632 14.529 4.67337 14.5336C4.66061 14.5382 4.64775 14.5425 4.6348 14.5466C4.62201 14.5506 4.60915 14.5543 4.5962 14.5579C4.5834 14.5613 4.57055 14.5646 4.55763 14.5675L4.54237 14.571C4.53537 14.5726 4.52753 14.5741 4.51906 14.5756C4.50729 14.5777 4.49427 14.5797 4.48045 14.5816C4.46814 14.5832 4.45516 14.5848 4.44188 14.5863C4.42922 14.5877 4.4163 14.589 4.40332 14.5902C4.39036 14.5913 4.37741 14.5924 4.36471 14.5933C4.35147 14.5942 4.33852 14.5951 4.32614 14.5957C4.31246 14.5964 4.29947 14.5969 4.28757 14.5972L4.26688 14.5975H4.24897H4.2104H4.17183H4.13323H4.09466H4.05606H4.01749H3.97892H3.94032H3.90175H3.86318H3.82458H3.78601H3.74744H3.70884H3.67027H3.6317H3.59309H3.55453H3.51596H3.47735H3.43878H3.40021H3.36161H3.32304H3.28447H3.24587H3.2073H3.16873H3.13013H3.09156H3.05296H3.01439H2.97582H2.93722H2.89865H2.86008H2.82148H2.78291H2.74434H2.70573H2.66717H2.6286H2.58999H2.55142H2.51285H2.47425H2.43568H2.39711H2.35851H2.31994H2.28137H2.24277H2.2042H2.1656H2.12703H2.08846H2.04986H2.01129H1.97272H1.95276V12.4872ZM5.05932 10.0971C5.07483 10.168 5.08315 10.243 5.08315 10.322C5.08315 10.4009 5.07483 10.4758 5.05932 10.5466C5.04935 10.5921 5.03639 10.6358 5.02072 10.6777C5.00927 10.7083 4.99638 10.7379 4.98215 10.7665C4.97022 10.7905 4.95733 10.8137 4.94358 10.8362C4.9314 10.8561 4.91848 10.8754 4.90498 10.8942C4.89264 10.9113 4.87978 10.9279 4.86641 10.944C4.85397 10.9589 4.84114 10.9735 4.82784 10.9876C4.81534 11.0008 4.80248 11.0136 4.78927 11.0261C4.7767 11.0379 4.76385 11.0494 4.75067 11.0605C4.73807 11.0712 4.72521 11.0814 4.7121 11.0914C4.69947 11.101 4.68661 11.1102 4.67353 11.1192C4.66087 11.1278 4.64798 11.1361 4.63493 11.1442C4.62223 11.152 4.60937 11.1595 4.59636 11.1667C4.58366 11.1737 4.57081 11.1805 4.55779 11.187C4.54506 11.1933 4.53217 11.1994 4.51919 11.2052C4.50646 11.2108 4.4936 11.2162 4.48062 11.2213C4.46786 11.2263 4.455 11.2311 4.44205 11.2356C4.42929 11.2401 4.41643 11.2443 4.40348 11.2482C4.39068 11.252 4.37783 11.2557 4.36488 11.2591C4.35211 11.2624 4.33926 11.2655 4.32631 11.2683C4.31355 11.2711 4.30066 11.2736 4.28774 11.2759L4.27837 11.2776C4.27085 11.2789 4.26087 11.2804 4.24913 11.2818C4.23775 11.2833 4.22467 11.2848 4.21056 11.2862C4.19835 11.2874 4.18536 11.2887 4.17199 11.2898C4.15936 11.2908 4.14638 11.2918 4.13339 11.2926C4.12044 11.2934 4.10746 11.2941 4.09482 11.2946C4.08145 11.2952 4.06847 11.2955 4.05625 11.2956L4.05014 11.2956H4.01768H3.97908H3.94051H3.90194H3.86334H3.82477H3.7862H3.74763H3.70903H3.67046H3.63189H3.59329H3.55472H3.51615H3.47755H3.43898H3.40041H3.36184H3.32324H3.28467H3.2461H3.20749H3.16892H3.13035H3.09175H3.05318H3.01461H2.97604H2.93744H2.89887H2.8603H2.8217H2.78313H2.74456H2.70599H2.66739H2.62882H2.59025H2.55165H2.51308H2.47451H2.43591H2.39734H2.35877H2.3202H2.2816H2.24303H2.20446H2.16585H2.12728H2.08871H2.05011H2.01154H1.97297H1.95276V9.34824H1.97297H2.01154H2.05011H2.08871H2.12728H2.16585H2.20446H2.24303H2.2816H2.3202H2.35877H2.39734H2.43591H2.47451H2.51308H2.55165H2.59025H2.62882H2.66739H2.70599H2.74456H2.78313H2.8217H2.8603H2.89887H2.93744H2.97604H3.01461H3.05318H3.09175H3.13035H3.16892H3.20749H3.2461H3.28467H3.32324H3.36184H3.40041H3.43898H3.47755H3.51615H3.55472H3.59329H3.63189H3.67046H3.70903H3.74763H3.7862H3.82477H3.86334H3.90194H3.94051H3.97908H4.01768H4.05625H4.0725L4.09482 9.34897C4.10746 9.34949 4.12044 9.35026 4.13339 9.35109C4.14638 9.35192 4.15936 9.35288 4.17199 9.3539C4.18536 9.35499 4.19835 9.35621 4.21056 9.35739C4.22467 9.35877 4.23775 9.36014 4.24913 9.36146C4.26087 9.3628 4.27085 9.36408 4.27837 9.36514L4.28774 9.36683C4.30066 9.36917 4.31355 9.37176 4.32631 9.37461C4.33926 9.37745 4.35211 9.38056 4.36488 9.38392C4.37783 9.38734 4.39068 9.39096 4.40348 9.39486C4.41643 9.39883 4.42929 9.40305 4.44205 9.4075C4.455 9.41205 4.46786 9.41685 4.48062 9.4219C4.4936 9.42705 4.50646 9.43249 4.51919 9.43816C4.53217 9.44398 4.54506 9.45003 4.55779 9.45637C4.57081 9.46286 4.58366 9.46961 4.59636 9.47665C4.60937 9.48388 4.62223 9.49144 4.63493 9.49924C4.64798 9.50728 4.66087 9.5156 4.67353 9.52427C4.68661 9.5332 4.69947 9.54254 4.7121 9.55214C4.72521 9.56209 4.73807 9.57236 4.75067 9.58299C4.76385 9.59412 4.7767 9.60561 4.78927 9.61745C4.80248 9.6299 4.81534 9.64273 4.82784 9.65598C4.84114 9.67006 4.85397 9.68462 4.86641 9.69959C4.87978 9.71569 4.89264 9.7323 4.90498 9.74938C4.91848 9.76814 4.9314 9.78743 4.94358 9.80737C4.95733 9.82986 4.97022 9.85313 4.98215 9.87709C4.99638 9.90567 5.00927 9.93533 5.02072 9.96592C5.03639 10.0078 5.04935 10.0516 5.05932 10.0971ZM9.84578 0H9.86161L9.86158 20.0002C9.86158 20.1197 9.85604 20.2379 9.84578 20.3548C9.83676 20.4576 9.82384 20.5593 9.80718 20.6597C9.79598 20.7272 9.78313 20.7941 9.76861 20.8604C9.75681 20.9143 9.74395 20.9679 9.73001 21.021C9.71795 21.0668 9.70506 21.1123 9.69144 21.1574C9.67912 21.1982 9.66639 21.2389 9.65283 21.2792C9.64052 21.3157 9.62757 21.3519 9.61426 21.388C9.60186 21.4215 9.58893 21.4549 9.57566 21.488C9.56319 21.5192 9.55033 21.5501 9.53709 21.5808C9.52456 21.6099 9.51167 21.6389 9.49849 21.6677C9.48592 21.6951 9.47307 21.7223 9.45992 21.7494C9.44729 21.7753 9.43446 21.8011 9.42132 21.8267C9.40872 21.8512 9.39583 21.8757 9.38275 21.8999C9.37015 21.9232 9.3572 21.9463 9.34415 21.9694C9.33152 21.9917 9.31863 22.0138 9.30558 22.0358C9.29288 22.0573 9.28002 22.0786 9.26698 22.0998C9.25425 22.1204 9.24146 22.1409 9.22838 22.1613C9.21571 22.181 9.20276 22.2006 9.18977 22.22C9.17711 22.239 9.16419 22.2578 9.1512 22.2765C9.13847 22.2949 9.12562 22.3133 9.1126 22.3314C9.09987 22.3492 9.08705 22.3668 9.07403 22.3844C9.06134 22.4014 9.04838 22.4183 9.03543 22.4352C9.02267 22.4518 9.00985 22.4684 8.99686 22.4847C8.9841 22.5008 8.97128 22.5168 8.95826 22.5327C8.94553 22.5482 8.93261 22.5636 8.91969 22.5789C8.90686 22.5941 8.89414 22.6093 8.88109 22.6243C8.86836 22.6389 8.85544 22.6533 8.84252 22.6678C8.82976 22.682 8.81687 22.6962 8.80392 22.7103C8.79112 22.7242 8.77833 22.738 8.76535 22.7517C8.75262 22.7652 8.73966 22.7784 8.72674 22.7917C8.71392 22.8049 8.70116 22.8181 8.68814 22.8311C8.67541 22.8438 8.66246 22.8563 8.64957 22.8688C8.63675 22.8812 8.62396 22.8937 8.61097 22.906C8.59821 22.9181 8.58532 22.93 8.5724 22.9419C8.55961 22.9537 8.54672 22.9655 8.5338 22.9771C8.52101 22.9886 8.50818 23 8.49523 23.0113C8.48244 23.0225 8.46955 23.0336 8.45663 23.0446C8.4438 23.0556 8.43101 23.0665 8.41806 23.0773C8.4053 23.0879 8.39238 23.0984 8.37946 23.1088C8.36663 23.1192 8.35384 23.1296 8.34089 23.1399C8.32813 23.15 8.31517 23.1599 8.30229 23.1698C8.28946 23.1797 8.27667 23.1897 8.26372 23.1994C8.25095 23.209 8.238 23.2184 8.22511 23.2279C8.21226 23.2373 8.19946 23.2468 8.18651 23.2561C8.17375 23.2652 8.16083 23.2741 8.14794 23.2831C8.13509 23.2921 8.12229 23.3011 8.10934 23.3099C8.09655 23.3186 8.08366 23.3271 8.07077 23.3357C8.05795 23.3442 8.04512 23.3527 8.03217 23.3611C8.01938 23.3694 8.00649 23.3775 7.9936 23.3857C7.98078 23.3937 7.96792 23.4018 7.955 23.4098C7.9422 23.4176 7.92935 23.4254 7.91643 23.4332L7.87783 23.456C7.865 23.4635 7.85218 23.471 7.83926 23.4784C7.82646 23.4856 7.81354 23.4928 7.80065 23.5C7.7878 23.5071 7.77501 23.5143 7.76208 23.5213C7.74929 23.5282 7.73637 23.5349 7.72348 23.5416C7.71059 23.5484 7.69783 23.5554 7.68488 23.562C7.67212 23.5686 7.65917 23.5748 7.64631 23.5813C7.63346 23.5877 7.62066 23.5942 7.60771 23.6004C7.59492 23.6066 7.582 23.6127 7.56914 23.6188L7.53054 23.6368L7.49197 23.6543C7.47914 23.6601 7.46626 23.6656 7.45337 23.6712C7.44051 23.6768 7.42772 23.6825 7.4148 23.688C7.402 23.6934 7.38908 23.6985 7.3762 23.7038C7.36334 23.709 7.35055 23.7144 7.33763 23.7195C7.3248 23.7246 7.31191 23.7295 7.29902 23.7344C7.2862 23.7393 7.27337 23.7443 7.26045 23.7491L7.22185 23.7633C7.20903 23.7679 7.19611 23.7724 7.18325 23.7769C7.17039 23.7814 7.15763 23.7861 7.14468 23.7905C7.13189 23.7948 7.11894 23.7988 7.10608 23.803L7.06751 23.8155C7.05468 23.8196 7.0418 23.8235 7.02891 23.8274L6.99034 23.8389C6.97748 23.8427 6.96466 23.8466 6.95174 23.8502C6.93894 23.8538 6.92602 23.8572 6.91317 23.8607C6.90031 23.8642 6.88748 23.8678 6.87456 23.8711L6.83599 23.8808L6.79739 23.8903L6.75882 23.8995C6.746 23.9024 6.73311 23.9051 6.72022 23.9079C6.70737 23.9107 6.69454 23.9136 6.68162 23.9163L6.64305 23.924L6.60445 23.9314C6.59159 23.9338 6.57877 23.9364 6.56588 23.9387C6.55305 23.9409 6.54013 23.9429 6.52728 23.9451L6.48871 23.9515L6.45011 23.9573L6.41154 23.9627C6.39865 23.9644 6.38585 23.9664 6.37293 23.9681C6.36011 23.9697 6.34719 23.971 6.33436 23.9725C6.32151 23.974 6.30865 23.9755 6.29576 23.9769C6.28291 23.9783 6.27008 23.9797 6.25719 23.9809C6.24437 23.9822 6.23145 23.9832 6.21859 23.9844C6.2057 23.9855 6.19288 23.9868 6.17999 23.9878C6.16716 23.9888 6.15428 23.9896 6.14142 23.9905L6.10282 23.9929C6.08996 23.9937 6.07714 23.9946 6.06425 23.9952C6.05142 23.9959 6.0385 23.9962 6.02565 23.9967L5.98708 23.9982L5.94847 23.9992C5.93565 23.9995 5.92276 23.9995 5.9099 23.9997L5.8713 24.0002L5.86334 24.0003H5.83273H5.79413H5.75556H5.71696H5.67836H5.63979H5.60119H5.56262H5.52402H5.48545H5.44684H5.40827H5.36967H5.3311H5.2925H5.2539H5.21533H5.17673H5.13816H5.09956H5.06099H5.02238H4.98381H4.94521H4.90664H4.86804H4.82947H4.79087H4.75227H4.7137H4.6751H4.63653H4.59792H4.55936H4.52075H4.48218H4.44358H4.40501H4.36641H4.32784H4.28924H4.25064H4.21207H4.17347H4.1349H4.09629H4.05772H4.01912H3.98055H3.94195H3.90338H3.86478H3.82621H3.78761H3.74901H3.71044H3.67183H3.63327H3.59466H3.55609H3.51749H3.47892H3.44032H3.40175H3.36315H3.32458H3.28598H3.24738H3.20881H3.1702H3.13163H3.09303H3.05446H3.01586H2.97729H2.93869H2.90012H2.86152H2.82295H2.78435H2.74574H2.70718H2.66857H2.63H2.5914H2.55283H2.51423H2.47566H2.43706H2.39849H2.35989H2.32132H2.28272H2.24411H2.20554H2.16694H2.12837H2.08977H2.0512H2.0126H1.97403H1.93543H1.89686H1.85826H1.81969H1.78109H1.74248H1.70391H1.66531H1.62674H1.58814H1.54957H1.51097H1.4724H1.4338H1.39523H1.35663H1.31806H1.27945H1.24085H1.20228H1.16368H1.12511H1.08651H1.04794H1.00934H0.970768H0.932167H0.893597H0.854995H0.816425H0.777824H0.739222H0.700652H0.66205H0.623481H0.584879H0.546309H0.507707H0.469137H0.430536H0.391966H0.353364H0.314794H0.276193H0.237591H0.199021H0.16042H0.12185H0.083248H0V15.8455H0.083248H0.12185H0.16042H0.199021H0.237591H0.276193H0.314794H0.353364H0.391966H0.430536H0.469137H0.507707H0.546309H0.584879H0.623481H0.66205H0.700652H0.739222H0.777824H0.816425H0.854995H0.893597H0.932167H0.970768H1.00934H1.04794H1.08651H1.12511H1.16368H1.20228H1.24085H1.27945H1.31806H1.35663H1.39523H1.4338H1.4724H1.51097H1.54957H1.58814H1.62674H1.66531H1.70391H1.74248H1.78109H1.81969H1.85826H1.89686H1.93543H1.97403H2.0126H2.0512H2.08977H2.12837H2.16694H2.20554H2.24411H2.28272H2.32132H2.35989H2.39849H2.43706H2.47566H2.51423H2.55283H2.5914H2.63H2.66857H2.70718H2.74574H2.78435H2.82295H2.86152H2.90012H2.93869H2.97729H3.01586H3.05446H3.09303H3.13163H3.1702H3.20881H3.24738H3.28598H3.32458H3.36315H3.40175H3.44032H3.47892H3.51749H3.55609H3.59466H3.63327H3.67183H3.71044H3.74901H3.78761H3.82621H3.86478H3.90338H3.94195H3.98055H4.01912H4.05772H4.09629H4.1349H4.17347H4.21207H4.25064H4.28924H4.32784H4.36641H4.40501H4.44358H4.48218H4.52075H4.55936H4.59792H4.63653H4.6751H4.7137H4.75227H4.79087H4.82947H4.86804H4.90664H4.94521H4.98381H5.02238H5.06099H5.09956H5.13816H5.17673H5.21533H5.2539H5.2925H5.3311H5.36967H5.40827H5.44684H5.48545H5.52402H5.56262H5.60119H5.63979H5.67836H5.71696H5.75556H5.79413H5.83273H5.8713H5.9099H5.94847H5.98708H6.02565H6.06425H6.10282H6.14142H6.17999H6.20046L6.21859 15.8453L6.25719 15.845L6.29576 15.8442C6.30865 15.8439 6.32154 15.8437 6.33436 15.8432C6.34728 15.8428 6.36008 15.8422 6.37293 15.8416L6.41154 15.8398L6.45011 15.8375L6.48871 15.8348L6.52728 15.8318L6.56588 15.8283C6.57873 15.827 6.59166 15.8259 6.60445 15.8245C6.61737 15.8232 6.63019 15.8216 6.64305 15.8201L6.68162 15.8154C6.69454 15.8138 6.7074 15.8122 6.72022 15.8104C6.73314 15.8086 6.74597 15.8066 6.75882 15.8047C6.77171 15.8027 6.7846 15.8008 6.79739 15.7987L6.83599 15.7922L6.87456 15.7853C6.88745 15.7829 6.90037 15.7805 6.91317 15.778C6.92609 15.7755 6.93891 15.7727 6.95174 15.77L6.99034 15.7617C7.00323 15.7588 7.01612 15.7559 7.02891 15.7529C7.04186 15.7499 7.05468 15.7466 7.06751 15.7434C7.0804 15.7402 7.09329 15.737 7.10608 15.7336C7.11897 15.7302 7.13189 15.7268 7.14468 15.7232C7.1576 15.7197 7.17043 15.716 7.18325 15.7122C7.19617 15.7085 7.20906 15.7047 7.22185 15.7008L7.26045 15.6887C7.27341 15.6845 7.2862 15.6803 7.29902 15.6759C7.31194 15.6716 7.32483 15.6672 7.33763 15.6627C7.35055 15.6582 7.36343 15.6536 7.3762 15.6489C7.38918 15.6442 7.40197 15.6392 7.4148 15.6342C7.42772 15.6292 7.44057 15.6242 7.45337 15.619C7.46629 15.6138 7.47921 15.6086 7.49197 15.6033C7.50492 15.5978 7.51775 15.5923 7.53054 15.5866C7.54349 15.5809 7.55635 15.5751 7.56914 15.5692C7.58206 15.5633 7.59495 15.5573 7.60771 15.5512C7.62063 15.545 7.63355 15.5388 7.64631 15.5324C7.6593 15.5259 7.67209 15.5193 7.68488 15.5126C7.69783 15.5059 7.71069 15.4989 7.72348 15.4919C7.73647 15.4849 7.74932 15.4777 7.76208 15.4705C7.77504 15.4631 7.78793 15.4557 7.80065 15.4481C7.81361 15.4404 7.82653 15.4326 7.83926 15.4247C7.85224 15.4166 7.86507 15.4085 7.87783 15.4002C7.89084 15.3917 7.90367 15.3831 7.91643 15.3745C7.92941 15.3657 7.94227 15.3567 7.955 15.3477C7.96801 15.3384 7.98087 15.3291 7.9936 15.3196C8.00662 15.3099 8.01947 15.3001 8.03217 15.2902C8.04519 15.28 8.05807 15.2698 8.07077 15.2594C8.08379 15.2487 8.09664 15.238 8.10934 15.227C8.12239 15.2158 8.13525 15.2045 8.14794 15.193C8.16099 15.1812 8.17385 15.1692 8.18651 15.1571C8.19959 15.1446 8.21245 15.1319 8.22511 15.1191C8.23823 15.1059 8.25105 15.0925 8.26372 15.079C8.2768 15.0649 8.28965 15.0507 8.30229 15.0363C8.3154 15.0214 8.32829 15.0063 8.34089 14.9909C8.35403 14.975 8.36689 14.9588 8.37946 14.9424C8.3926 14.9253 8.40555 14.908 8.41806 14.8905C8.43133 14.8718 8.44409 14.8528 8.45663 14.8337C8.4699 14.8134 8.48279 14.7929 8.49523 14.7721C8.5086 14.7497 8.52145 14.727 8.5338 14.704C8.54723 14.6791 8.56018 14.6538 8.5724 14.6281C8.58606 14.5994 8.59888 14.5702 8.61097 14.5406C8.62485 14.5067 8.63777 14.4723 8.64957 14.4373C8.66409 14.3942 8.67689 14.3502 8.68814 14.3054C8.70461 14.24 8.71753 14.1728 8.72674 14.104C8.73794 14.0205 8.74382 13.9348 8.74382 13.8466C8.74382 13.7607 8.738 13.6773 8.72674 13.5964C8.7175 13.5298 8.70458 13.465 8.68814 13.4018C8.67692 13.3588 8.66403 13.3166 8.64957 13.2752C8.63774 13.2412 8.62488 13.2078 8.61097 13.1749C8.59891 13.1465 8.58602 13.1184 8.5724 13.0909C8.56015 13.066 8.54726 13.0416 8.5338 13.0174C8.52142 12.9952 8.5086 12.9733 8.49523 12.9517C8.48282 12.9316 8.4699 12.9118 8.45663 12.8923C8.44412 12.8739 8.4313 12.8556 8.41806 12.8376C8.40555 12.8207 8.39263 12.804 8.37946 12.7875C8.36689 12.7717 8.35403 12.7561 8.34089 12.7407C8.32825 12.7259 8.31543 12.7112 8.30229 12.6968C8.28965 12.6829 8.27683 12.6692 8.26372 12.6556C8.25108 12.6426 8.23819 12.6297 8.22511 12.617C8.21245 12.6046 8.19956 12.5924 8.18651 12.5804C8.17385 12.5687 8.16096 12.5572 8.14794 12.5458C8.13525 12.5347 8.12239 12.5237 8.10934 12.5129C8.09664 12.5024 8.08379 12.4919 8.07077 12.4816C8.05804 12.4716 8.04519 12.4616 8.03217 12.4518C8.01944 12.4422 8.00658 12.4328 7.9936 12.4234C7.98087 12.4143 7.96798 12.4052 7.955 12.3963C7.94227 12.3875 7.92941 12.3789 7.91643 12.3703C7.90367 12.3619 7.89081 12.3537 7.87783 12.3455C7.86507 12.3375 7.85224 12.3296 7.83926 12.3218C7.82653 12.3141 7.81364 12.3066 7.80065 12.2991C7.78789 12.2918 7.77504 12.2845 7.76208 12.2774C7.74932 12.2704 7.73647 12.2635 7.72348 12.2566C7.71072 12.2499 7.69783 12.2432 7.68488 12.2366C7.67212 12.2302 7.65926 12.2237 7.64631 12.2174C7.63352 12.2112 7.62069 12.2051 7.60771 12.199C7.59495 12.1931 7.58206 12.1873 7.56914 12.1815C7.55638 12.1758 7.54349 12.1702 7.53054 12.1647C7.51775 12.1592 7.50489 12.1538 7.49197 12.1485C7.47914 12.1433 7.46635 12.138 7.45337 12.1329C7.44057 12.1279 7.42772 12.1229 7.4148 12.1181C7.402 12.1133 7.38912 12.1086 7.3762 12.104C7.3634 12.0994 7.35055 12.0949 7.33763 12.0904C7.3248 12.086 7.31198 12.0816 7.29902 12.0773C7.28623 12.0731 7.27337 12.069 7.26045 12.0649C7.24766 12.0609 7.23474 12.057 7.22185 12.0531L7.18325 12.0418C7.17043 12.0381 7.1576 12.0344 7.14468 12.0309C7.13189 12.0274 7.11897 12.024 7.10608 12.0207C7.09329 12.0174 7.08043 12.0142 7.06751 12.011C7.05468 12.0078 7.04183 12.0047 7.02891 12.0017C7.01612 11.9987 7.00323 11.9957 6.99034 11.9929C6.97755 11.9901 6.96466 11.9873 6.95174 11.9846C6.93891 11.982 6.92609 11.9793 6.91317 11.9767L6.87456 11.9693L6.83599 11.9625C6.82317 11.9602 6.81031 11.958 6.79739 11.9559L6.75882 11.9498C6.746 11.9479 6.73311 11.9461 6.72022 11.9443L6.68162 11.939L6.64305 11.9341L6.60445 11.9298L6.56588 11.9257L6.52728 11.9221L6.48871 11.9189L6.45308 11.9161L6.45305 11.8699L6.48871 11.8643L6.52728 11.858C6.5402 11.8558 6.55309 11.8535 6.56588 11.8512L6.60445 11.8438C6.6174 11.8412 6.63026 11.8386 6.64305 11.8358L6.68162 11.8274C6.69454 11.8245 6.70746 11.8216 6.72022 11.8185C6.73317 11.8154 6.746 11.8121 6.75882 11.8088C6.77178 11.8055 6.7846 11.8021 6.79739 11.7986C6.81031 11.7951 6.8232 11.7915 6.83599 11.7878C6.84891 11.7841 6.8618 11.7804 6.87456 11.7765C6.88748 11.7726 6.90041 11.7686 6.91317 11.7645C6.92612 11.7603 6.93894 11.756 6.95174 11.7517C6.96472 11.7473 6.97755 11.7428 6.99034 11.7383C7.00329 11.7337 7.01615 11.729 7.02891 11.7242C7.04186 11.7193 7.05475 11.7144 7.06751 11.7094C7.08046 11.7043 7.09332 11.6991 7.10608 11.6938C7.11906 11.6884 7.13192 11.683 7.14468 11.6774C7.15767 11.6718 7.17049 11.666 7.18325 11.6601C7.19623 11.6542 7.20909 11.6481 7.22185 11.642C7.23484 11.6358 7.24769 11.6294 7.26045 11.623C7.27341 11.6164 7.28629 11.6097 7.29902 11.603C7.31201 11.5961 7.3249 11.5891 7.33763 11.582C7.35061 11.5748 7.36347 11.5675 7.3762 11.56C7.38918 11.5525 7.40207 11.5447 7.4148 11.5369C7.42781 11.529 7.44064 11.5209 7.45337 11.5127C7.46638 11.5044 7.47924 11.4958 7.49197 11.4872C7.50498 11.4784 7.51784 11.4695 7.53054 11.4604C7.54359 11.4512 7.55644 11.4418 7.56914 11.4323C7.58219 11.4225 7.59504 11.4127 7.60771 11.4026C7.62076 11.3923 7.63365 11.382 7.64631 11.3714C7.65936 11.3605 7.67222 11.3495 7.68488 11.3384C7.69799 11.3268 7.71082 11.3151 7.72348 11.3033C7.73656 11.2911 7.74945 11.2788 7.76208 11.2663C7.77517 11.2534 7.78805 11.2403 7.80065 11.2271C7.8138 11.2133 7.82666 11.1993 7.83926 11.1852C7.8524 11.1705 7.86526 11.1555 7.87783 11.1404C7.891 11.1247 7.90389 11.1087 7.91643 11.0925C7.92964 11.0754 7.94249 11.0582 7.955 11.0407C7.96827 11.0222 7.98113 11.0034 7.9936 10.9845C8.0069 10.9642 8.01979 10.9438 8.03217 10.9231C8.04557 10.9007 8.05846 10.878 8.07077 10.8551C8.0843 10.8298 8.09716 10.8043 8.10934 10.7785C8.12306 10.7494 8.13592 10.7199 8.14794 10.6902C8.16195 10.6555 8.17481 10.6203 8.18651 10.5847C8.20122 10.5399 8.21411 10.4944 8.22511 10.4484C8.24293 10.3736 8.25578 10.2973 8.26372 10.2197C8.26998 10.1584 8.27325 10.0963 8.27325 10.0336C8.27325 9.96743 8.26995 9.90289 8.26372 9.83995C8.25575 9.7595 8.2428 9.68181 8.22511 9.6068C8.21408 9.55995 8.20119 9.51416 8.18651 9.46949C8.17477 9.43375 8.16192 9.39871 8.14794 9.36434C8.13589 9.33474 8.12303 9.30565 8.10934 9.27711C8.09712 9.25164 8.08423 9.22658 8.07077 9.20194C8.05843 9.17938 8.04554 9.15718 8.03217 9.13529C8.01973 9.11497 8.0069 9.09494 7.9936 9.07523C7.98113 9.05676 7.96824 9.03859 7.955 9.02067C7.94249 9.00371 7.92964 8.98697 7.91643 8.97049C7.90383 8.95475 7.89103 8.93916 7.87783 8.92384C7.86526 8.90928 7.85237 8.89497 7.83926 8.8808C7.82666 8.86716 7.81377 8.85372 7.80065 8.84045C7.78802 8.82765 7.77517 8.81504 7.76208 8.80259C7.74942 8.79053 7.73656 8.77859 7.72348 8.76688C7.71082 8.75552 7.69793 8.74429 7.68488 8.73322C7.67218 8.72246 7.65936 8.71184 7.64631 8.70138C7.63362 8.6912 7.62076 8.68112 7.60771 8.67123C7.59501 8.66157 7.58216 8.65207 7.56914 8.64269C7.55641 8.63351 7.54355 8.62448 7.53054 8.61555C7.51781 8.60685 7.50498 8.59827 7.49197 8.58979C7.47924 8.58147 7.46635 8.57328 7.45337 8.56522C7.44064 8.55731 7.42775 8.54954 7.4148 8.54186C7.40204 8.53431 7.38918 8.52688 7.3762 8.51955C7.36347 8.51236 7.35061 8.50525 7.33763 8.49828C7.32486 8.4914 7.31201 8.48468 7.29902 8.47799C7.28626 8.47143 7.27341 8.46497 7.26045 8.4586C7.24766 8.45233 7.23484 8.44608 7.22185 8.44004C7.20909 8.43405 7.1962 8.42813 7.18325 8.42237C7.17049 8.41668 7.15763 8.41117 7.14468 8.40564C7.13192 8.4002 7.119 8.39485 7.10608 8.38957C7.09332 8.38439 7.08043 8.37927 7.06751 8.37425C7.05472 8.36929 7.04186 8.36436 7.02891 8.35956C7.01612 8.35482 7.00329 8.35018 6.99034 8.34561C6.97755 8.3411 6.96469 8.33671 6.95174 8.33236C6.93894 8.32807 6.92609 8.32388 6.91317 8.31975C6.90037 8.31566 6.88752 8.31162 6.87456 8.30769C6.86174 8.30378 6.84895 8.29988 6.83599 8.29614C6.8232 8.29246 6.81031 8.2889 6.79739 8.28538C6.7846 8.28186 6.77174 8.27847 6.75882 8.27511L6.72022 8.26529C6.7074 8.26212 6.69457 8.25902 6.68162 8.25601C6.66883 8.25303 6.65597 8.25015 6.64305 8.24734L6.60445 8.23911C6.59162 8.23646 6.57883 8.23377 6.56588 8.23127C6.55309 8.22878 6.54017 8.22647 6.52728 8.22411L6.48871 8.21732C6.47588 8.21515 6.46306 8.21294 6.45011 8.21089L6.41154 8.20503L6.37293 8.19959L6.33436 8.19447L6.29576 8.1899L6.25719 8.18574L6.21859 8.18187L6.17999 8.17847L6.14142 8.1755L6.10282 8.17275L6.06425 8.17054L6.04893 8.16967L6.02565 8.16823L5.98708 8.16596L5.94847 8.16382L5.9099 8.1618L5.8713 8.15995L5.83273 8.15828L5.79413 8.15687L5.75556 8.15569L5.71696 8.15483L5.67836 8.15431L5.65709 8.15425H5.63979H5.60119H5.56262H5.52402H5.48545H5.44684H5.40827H5.36967H5.3311H5.2925H5.2539H5.21533H5.17673H5.13816H5.09956H5.06099H5.02238H4.98381H4.94521H4.90664H4.86804H4.82947H4.79087H4.75227H4.7137H4.6751H4.63653H4.59792H4.55936H4.52075H4.48218H4.44358H4.40501H4.36641H4.32784H4.28924H4.25064H4.21207H4.17347H4.1349H4.09629H4.05772H4.01912H3.98055H3.94195H3.90338H3.86478H3.82621H3.78761H3.74901H3.71044H3.67183H3.63327H3.59466H3.55609H3.51749H3.47892H3.44032H3.40175H3.36315H3.32458H3.28598H3.24738H3.20881H3.1702H3.13163H3.09303H3.05446H3.01586H2.97729H2.93869H2.90012H2.86152H2.82295H2.78435H2.74574H2.70718H2.66857H2.63H2.5914H2.55283H2.51423H2.47566H2.43706H2.39849H2.35989H2.32132H2.28272H2.24411H2.20554H2.16694H2.12837H2.08977H2.0512H2.0126H1.97403H1.93543H1.89686H1.85826H1.81969H1.78109H1.74248H1.70391H1.66531H1.62674H1.58814H1.54957H1.51097H1.4724H1.4338H1.39523H1.35663H1.31806H1.27945H1.24085H1.20228H1.16368H1.12511H1.08651H1.04794H1.00934H0.970768H0.932167H0.893597H0.854995H0.816425H0.777824H0.739222H0.700652H0.66205H0.623481H0.584879H0.546309H0.507707H0.469137H0.430536H0.391966H0.353364H0.314794H0.276193H0.237591H0.199021H0.16042H0.12185H0.083248H0V4.00037C0 3.72092 0.0287514 3.44822 0.083248 3.18493C0.0949533 3.12855 0.107842 3.07265 0.12185 3.01719C0.133843 2.96974 0.146763 2.92263 0.16042 2.87588C0.172636 2.83412 0.185493 2.79265 0.199021 2.75147C0.211366 2.71384 0.224159 2.6764 0.237591 2.63928C0.250032 2.60485 0.262824 2.57061 0.276193 2.53663C0.288698 2.50488 0.301522 2.4733 0.314794 2.44197C0.327331 2.4124 0.340156 2.38296 0.353364 2.35375C0.365901 2.32601 0.378822 2.29845 0.391966 2.27106C0.404503 2.24492 0.417423 2.21897 0.430536 2.19314C0.443137 2.16831 0.456057 2.14367 0.469137 2.11913C0.481738 2.09548 0.494627 2.07199 0.507707 2.04863C0.520372 2.02598 0.533229 2.00352 0.546309 1.98115C0.559006 1.95945 0.571798 1.93785 0.584879 1.91644C0.597575 1.89568 0.610432 1.87507 0.623481 1.85456C0.636113 1.83469 0.649066 1.81501 0.66205 1.79539C0.674779 1.77619 0.687604 1.75706 0.700652 1.73808C0.713413 1.71949 0.726141 1.7009 0.739222 1.68253C0.751918 1.66474 0.764871 1.64717 0.777824 1.6296C0.79052 1.61232 0.803441 1.59517 0.816425 1.57812C0.829218 1.56132 0.841947 1.54445 0.854995 1.52788C0.867692 1.51175 0.880676 1.49588 0.893597 1.47994C0.906325 1.46423 0.919182 1.44865 0.932167 1.43316C0.944959 1.41786 0.957752 1.40257 0.970768 1.38746C0.983465 1.37274 0.996417 1.35828 1.00934 1.34375C1.02216 1.32935 1.03492 1.31492 1.04794 1.30071C1.06067 1.28679 1.07359 1.273 1.08651 1.25924C1.09927 1.24567 1.11216 1.2322 1.12511 1.21879C1.1379 1.20558 1.1507 1.19236 1.16368 1.17931C1.17644 1.16647 1.18936 1.15383 1.20228 1.1412C1.21511 1.12862 1.22784 1.11592 1.24085 1.10353C1.25358 1.0914 1.26657 1.07956 1.27945 1.0676C1.29228 1.05569 1.30507 1.04376 1.31806 1.03201C1.33082 1.02046 1.34374 1.00913 1.35663 0.997774C1.36945 0.986478 1.38228 0.975182 1.39523 0.964046C1.40802 0.95307 1.42088 0.942255 1.4338 0.931439C1.44662 0.920719 1.45945 0.910031 1.4724 0.899472C1.48519 0.889008 1.49805 0.878672 1.51097 0.8684L1.54957 0.838033L1.58814 0.808465C1.60096 0.798769 1.61382 0.789138 1.62674 0.779602C1.63953 0.770162 1.65239 0.760754 1.66531 0.751442L1.70391 0.724019C1.71671 0.715027 1.72956 0.706099 1.74248 0.697267L1.78109 0.671124L1.81969 0.645684C1.83251 0.637332 1.84534 0.629012 1.85826 0.620821L1.89686 0.596693C1.90971 0.588725 1.92251 0.580757 1.93543 0.572949C1.94822 0.565206 1.96114 0.557686 1.97403 0.550102C1.98689 0.542518 1.99965 0.53487 2.0126 0.527446C2.02536 0.520118 2.03834 0.513047 2.0512 0.505847C2.06406 0.498647 2.07682 0.491319 2.08977 0.484279C2.10256 0.477335 2.11552 0.470615 2.12837 0.463799C2.14123 0.456984 2.15402 0.450136 2.16694 0.443448C2.17974 0.436824 2.19266 0.430392 2.20554 0.423928C2.21837 0.417496 2.23123 0.411032 2.24411 0.404729L2.28272 0.386073C2.29554 0.379961 2.30843 0.374009 2.32132 0.368025C2.33417 0.362073 2.34697 0.356025 2.35989 0.350202C2.37268 0.344442 2.38563 0.338938 2.39849 0.333306C2.41135 0.327674 2.42414 0.321946 2.43706 0.316442C2.44985 0.311002 2.4628 0.305818 2.47566 0.300506C2.48849 0.295227 2.50131 0.289883 2.51423 0.284731L2.55283 0.269531L2.5914 0.254843C2.60429 0.249979 2.61708 0.245052 2.63 0.240348C2.6428 0.235676 2.65572 0.231292 2.66857 0.226748C2.68146 0.222204 2.69425 0.217564 2.70718 0.213148C2.71997 0.208764 2.73289 0.204636 2.74574 0.20038L2.78435 0.187869C2.7972 0.183773 2.81003 0.179645 2.82295 0.175677C2.83574 0.171741 2.84866 0.168029 2.86152 0.164221C2.87437 0.160381 2.8872 0.156413 2.90012 0.152733C2.91291 0.149085 2.92583 0.145693 2.93869 0.142173C2.95155 0.138653 2.96437 0.135102 2.97729 0.13171L3.01586 0.121726C3.02869 0.118494 3.04157 0.115422 3.05446 0.112318C3.06732 0.109214 3.08011 0.105886 3.09303 0.10291C3.10583 0.0999662 3.11878 0.0972782 3.13163 0.0944303L3.1702 0.0860144L3.20881 0.0780466C3.2216 0.0754866 3.23452 0.0730867 3.24738 0.0706547C3.26026 0.0681907 3.27306 0.0655668 3.28598 0.0632308C3.2988 0.0608949 3.31172 0.0589109 3.32458 0.056735L3.36315 0.0503351C3.37601 0.0482871 3.38886 0.0461752 3.40175 0.0442552C3.41458 0.0423352 3.42746 0.0406393 3.44032 0.0388473C3.45321 0.0370553 3.466 0.0351034 3.47892 0.0334394C3.49175 0.0317754 3.50464 0.0303034 3.51749 0.0287675L3.55609 0.0243516C3.56895 0.0229436 3.58177 0.0213756 3.59466 0.0200956C3.60749 0.0188157 3.62041 0.0178237 3.63327 0.0166717L3.67183 0.0132478L3.71044 0.0103358C3.72326 0.00940783 3.73615 0.00867184 3.74901 0.00787186C3.76186 0.00710387 3.77469 0.00611189 3.78761 0.0054399C3.80043 0.00476791 3.81335 0.00438392 3.82621 0.00383993L3.86478 0.00239996C3.87767 0.00198396 3.89049 0.00143997 3.90338 0.00115198C3.91621 0.000863984 3.92909 0.000831985 3.94195 0.000639988C3.95481 0.000447992 3.96766 0.000223996 3.98055 0.000159997L3.99024 3.19994e-05H4.01912H4.05772H4.09629H4.1349H4.17347H4.21207H4.25064H4.28924H4.32784H4.36641H4.40501H4.44358H4.48218H4.52075H4.55936H4.59792H4.63653H4.6751H4.7137H4.75227H4.79087H4.82947H4.86804H4.90664H4.94521H4.98381H5.02238H5.06099H5.09956H5.13816H5.17673H5.21533H5.2539H5.2925H5.3311H5.36967H5.40827H5.44684H5.48545H5.52402H5.56262H5.60119H5.63979H5.67836H5.71696H5.75556H5.79413H5.83273H5.8713H5.9099H5.94847H5.98708H6.02565H6.06425H6.10282H6.14142H6.17999H6.21859H6.25719H6.29576H6.33436H6.37293H6.41154H6.45011H6.48871H6.52728H6.56588H6.60445H6.64305H6.68162H6.72022H6.75882H6.79739H6.83599H6.87456H6.91317H6.95174H6.99034H7.02891H7.06751H7.10608H7.14468H7.18325H7.22185H7.26045H7.29902H7.33763H7.3762H7.4148H7.45337H7.49197H7.53054H7.56914H7.60771H7.64631H7.68488H7.72348H7.76208H7.80065H7.83926H7.87783H7.91643H7.955H7.9936H8.03217H8.07077H8.10934H8.14794H8.18651H8.22511H8.26372H8.30229H8.34089H8.37946H8.41806H8.45663H8.49523H8.5338H8.5724H8.61097H8.64957H8.68814H8.72674H8.76535H8.80392H8.84252H8.88109H8.91969H8.95826H8.99686H9.03543H9.07403H9.1126H9.1512H9.18977H9.22838H9.26698H9.30558H9.34415H9.38275H9.42132H9.45992H9.49849H9.53709H9.57566H9.61426H9.65283H9.69144H9.73001H9.76861H9.80718H9.84578V0Z" fill="#54B230"/>
</svg>
