<svg width="10" height="24" viewBox="0 0 10 24" fill="none" xmlns="http://www.w3.org/2000/svg">
<path fill-rule="evenodd" clip-rule="evenodd" d="M0.0827043 9.16838C0.0546245 9.1911 0.0269924 9.21401 0 9.23721V4.00034C0 3.72185 0.0285595 3.45002 0.0827043 3.18753C0.0943456 3.13117 0.107234 3.07534 0.12121 3.01988C0.133203 2.9723 0.146092 2.9251 0.159748 2.87822C0.171933 2.83646 0.184789 2.79499 0.198286 2.75381C0.210599 2.71617 0.223391 2.67873 0.236791 2.64162C0.2492 2.60722 0.261993 2.57298 0.275329 2.53903C0.287802 2.50728 0.300595 2.4757 0.313835 2.44434C0.32634 2.41477 0.339164 2.3854 0.352341 2.35618C0.364846 2.32844 0.377766 2.30089 0.390879 2.27349C0.403415 2.24732 0.416304 2.2214 0.429384 2.19554C0.441953 2.17071 0.454842 2.14607 0.467922 2.12153C0.480523 2.09788 0.493379 2.07439 0.506428 2.05103C0.519061 2.02841 0.531885 2.00588 0.544966 1.98355C0.55763 1.96185 0.570391 1.94025 0.583472 1.91881C0.596104 1.89811 0.608961 1.87753 0.621977 1.85709C0.634642 1.83718 0.647531 1.8175 0.660515 1.79785C0.673212 1.77862 0.686004 1.75952 0.699021 1.74054C0.711782 1.72192 0.72451 1.7033 0.737559 1.68493C0.750191 1.66714 0.763144 1.64963 0.776064 1.6321C0.788793 1.61482 0.801618 1.59763 0.814602 1.58058C0.827363 1.56378 0.840092 1.54695 0.853108 1.53037C0.865741 1.51428 0.878757 1.4984 0.891646 1.4825C0.904374 1.46679 0.917199 1.45114 0.930152 1.43565C0.942912 1.42036 0.955705 1.40513 0.968689 1.39005C0.981386 1.37533 0.994306 1.36081 1.0072 1.34628C1.01996 1.33188 1.03275 1.31742 1.04573 1.30318C1.05843 1.28926 1.07132 1.2755 1.08421 1.26177C1.09694 1.2482 1.10979 1.23473 1.12271 1.22132C1.13551 1.20811 1.1483 1.19489 1.16125 1.18183C1.17398 1.16903 1.18687 1.15639 1.19976 1.14375C1.21258 1.13118 1.22531 1.11851 1.23829 1.10609C1.25099 1.09396 1.26394 1.08212 1.2768 1.07016C1.28959 1.05822 1.30235 1.04625 1.31534 1.03451C1.32807 1.02299 1.34099 1.01166 1.35384 1.0003C1.36664 0.988974 1.37943 0.977678 1.39238 0.966542C1.40514 0.955567 1.418 0.944783 1.43089 0.933967C1.44368 0.923247 1.4565 0.912527 1.46942 0.901935C1.48219 0.891504 1.49504 0.881168 1.50793 0.870896C1.52072 0.860688 1.53355 0.850544 1.54647 0.840497C1.55923 0.830577 1.57209 0.820753 1.58497 0.810961C1.59777 0.801265 1.61059 0.791601 1.62348 0.782066C1.63624 0.772594 1.64913 0.76325 1.66202 0.753938C1.67481 0.744722 1.68763 0.735506 1.70052 0.726419C1.71332 0.717427 1.72617 0.708563 1.73906 0.699699C1.75185 0.690899 1.76468 0.682132 1.77757 0.673492C1.79033 0.664948 1.80322 0.656532 1.8161 0.648116C1.8289 0.639732 1.84169 0.631348 1.85461 0.623125C1.8674 0.614997 1.88026 0.607061 1.89315 0.599061C1.90597 0.591093 1.91873 0.583029 1.93165 0.575221C1.94441 0.567478 1.95734 0.55999 1.97019 0.552406C1.98305 0.544822 1.99578 0.537078 2.0087 0.529654C2.02143 0.522326 2.03441 0.515287 2.04724 0.508087C2.06009 0.500887 2.07282 0.493623 2.08574 0.486583C2.0985 0.479607 2.11139 0.472887 2.12425 0.466039C2.13707 0.459224 2.14986 0.452376 2.16278 0.445688L2.20129 0.426072L2.23983 0.406905C2.25262 0.400633 2.26545 0.394297 2.27833 0.388153C2.29113 0.382041 2.30402 0.376121 2.31687 0.370137C2.32973 0.364185 2.34246 0.358041 2.35538 0.352218C2.36814 0.346426 2.38106 0.340986 2.39392 0.335354C2.40674 0.329722 2.41953 0.323994 2.43242 0.31849C2.44521 0.31305 2.45807 0.30777 2.47093 0.302458L2.50946 0.286715C2.52229 0.281563 2.53508 0.276411 2.54797 0.271387C2.56076 0.266395 2.57365 0.261595 2.58651 0.256731C2.59936 0.251867 2.61209 0.246843 2.62501 0.242108C2.63777 0.237436 2.65073 0.233084 2.66355 0.22854C2.67638 0.223996 2.68917 0.219388 2.70206 0.214972C2.71485 0.210556 2.72774 0.206332 2.7406 0.202076L2.7791 0.189565C2.79193 0.185469 2.80475 0.181277 2.81764 0.177277C2.8304 0.173341 2.84332 0.169629 2.85614 0.165821C2.86897 0.161981 2.88179 0.158045 2.89468 0.154333C2.90748 0.150653 2.92033 0.147229 2.93319 0.143677L2.97169 0.133214C2.98455 0.129822 2.99734 0.126366 3.01023 0.123102C3.02302 0.11987 3.03591 0.11683 3.04874 0.113694C3.06156 0.110558 3.07439 0.107294 3.08728 0.104286C3.10007 0.10131 3.11296 0.0985262 3.12578 0.0956782L3.16432 0.0872944C3.17718 0.0845744 3.18994 0.0817585 3.20282 0.0791665C3.21562 0.0765746 3.22851 0.0742386 3.24136 0.0717747C3.25419 0.0693107 3.26698 0.0667188 3.27987 0.0643828L3.31841 0.0577269L3.35691 0.0513591C3.36977 0.0492791 3.38256 0.0470711 3.39545 0.0451192C3.40824 0.0431672 3.42113 0.0415352 3.43396 0.0397113C3.44678 0.0379193 3.4596 0.0360313 3.47246 0.0343354L3.511 0.0295035L3.54951 0.0250875C3.56236 0.0236476 3.57515 0.0219836 3.58804 0.0206716C3.60084 0.0193596 3.61372 0.0183997 3.62655 0.0172157L3.66509 0.0138237C3.67791 0.0127358 3.69074 0.0116798 3.70359 0.0107518C3.71642 0.00982382 3.72927 0.00908783 3.7421 0.00828785C3.75495 0.00748786 3.76775 0.00655988 3.78064 0.00585589C3.79346 0.00515191 3.80632 0.00467191 3.81917 0.00409592L3.85768 0.00262395C3.87054 0.00217596 3.88333 0.00150397 3.89622 0.00118398C3.90901 0.000863984 3.9219 0.000895984 3.93472 0.000703987C3.94758 0.000511991 3.9604 0.000287995 3.97326 0.000223996L3.99024 0H4.01177H4.0503H4.08881H4.12732H4.16585H4.20436H4.2429H4.2814H4.31994H4.35845H4.39698H4.43549H4.474H4.51253H4.55104H4.58958H4.62808H4.66662H4.70513H4.74363H4.78217H4.82068H4.85921H4.89772H4.93626H4.9748H5.0133H5.05184H5.09034H5.12885H5.16739H5.20589H5.24443H5.28294H5.32147H5.35998H5.39849H5.43702H5.47553H5.51407H5.55257H5.59111H5.62962H5.66816H5.70666H5.74517H5.7837H5.82221H5.86075H5.89925H5.93779H5.9763H6.01483H6.05334H6.09185H6.13038H6.16892H6.20743H6.24597H6.28447H6.32301H6.36152H6.40002H6.43856H6.47706H6.5156H6.55411H6.59265H6.63115H6.66969H6.7082H6.7467H6.78524H6.82374H6.86228H6.90079H6.93933H6.97783H7.01637H7.05488H7.09338H7.13192H7.17042H7.20896H7.24747H7.28601H7.32451H7.36305H7.40156H7.44009H7.4786H7.51714H7.55564H7.59418H7.63269H7.67122H7.70973H7.74824H7.78677H7.82528H7.86382H7.90232H7.94086H7.97937H8.0179H8.05641H8.09492H8.13345H8.17196H8.2105H8.249H8.28754H8.32605H8.36458H8.40309H8.4416H8.48013H8.51864H8.55718H8.59571H8.63422H8.67276H8.71126H8.74977H8.78831H8.82681H8.86535H8.90386H8.94239H8.9809H9.01944H9.05794H9.09645H9.13499H9.17349H9.21203H9.25054H9.28907H9.32758H9.36609H9.40462H9.44313H9.48167H9.52017H9.55871H9.59722H9.63575H9.67426H9.71277H9.7513H9.78984H9.82835H9.861V20.0002C9.861 20.1742 9.84987 20.3454 9.82835 20.5135C9.81799 20.5944 9.80497 20.6745 9.78984 20.7538C9.77833 20.8142 9.7655 20.8741 9.7513 20.9335C9.73934 20.9835 9.72658 21.0332 9.71277 21.0825C9.70064 21.1257 9.68779 21.1686 9.67426 21.2113C9.66201 21.2498 9.64912 21.2881 9.63575 21.3262C9.62338 21.3614 9.61052 21.3965 9.59722 21.4313C9.58478 21.4637 9.57198 21.4959 9.55871 21.528C9.54621 21.5582 9.53338 21.5882 9.52017 21.6181C9.50767 21.6464 9.49481 21.6744 9.48167 21.7024C9.4691 21.729 9.45627 21.7556 9.44313 21.7819C9.43056 21.8072 9.4177 21.8323 9.40462 21.8572C9.39199 21.8813 9.3792 21.9052 9.36609 21.929C9.35342 21.952 9.34069 21.9748 9.32758 21.9975C9.31498 22.0194 9.30209 22.0411 9.28907 22.0627C9.27644 22.0837 9.26355 22.1044 9.25054 22.1251C9.23787 22.1452 9.22505 22.1653 9.21203 22.1852C9.1993 22.2047 9.18657 22.2242 9.17349 22.2434C9.16083 22.2621 9.14794 22.2806 9.13499 22.299C9.12232 22.317 9.10943 22.3349 9.09645 22.3527C9.08372 22.3702 9.07093 22.3877 9.05794 22.405C9.04525 22.4218 9.03239 22.4385 9.01944 22.4552C9.00674 22.4715 8.99382 22.4877 8.9809 22.5038C8.96814 22.5197 8.95541 22.5356 8.94239 22.5513C8.9297 22.5666 8.91678 22.5817 8.90386 22.5969C8.89113 22.6118 8.8783 22.6266 8.86535 22.6413C8.85256 22.6558 8.8398 22.6704 8.82681 22.6847C8.81412 22.6988 8.80116 22.7125 8.78831 22.7264C8.77551 22.7401 8.76275 22.7539 8.74977 22.7675C8.73704 22.7807 8.72415 22.7938 8.71126 22.8069C8.6985 22.8198 8.68571 22.8327 8.67276 22.8455C8.66 22.8581 8.64717 22.8707 8.63422 22.8832C8.62149 22.8954 8.6086 22.9075 8.59571 22.9196C8.58289 22.9316 8.57013 22.9437 8.55718 22.9555C8.54445 22.9672 8.53153 22.9786 8.51864 22.99C8.50581 23.0014 8.49312 23.013 8.48013 23.0242C8.4674 23.0352 8.45445 23.046 8.4416 23.0568C8.42877 23.0677 8.41604 23.0786 8.40309 23.0893C8.39036 23.0998 8.37741 23.11 8.36458 23.1203C8.35176 23.1306 8.339 23.141 8.32605 23.1512C8.31332 23.1611 8.3004 23.1709 8.28754 23.1807C8.27472 23.1905 8.26196 23.2003 8.249 23.21C8.23627 23.2195 8.22335 23.2288 8.2105 23.2381C8.19767 23.2474 8.18491 23.2569 8.17196 23.266C8.15923 23.2751 8.14631 23.2839 8.13345 23.2928C8.12063 23.3017 8.10787 23.3106 8.09492 23.3194C8.08219 23.328 8.06927 23.3363 8.05641 23.3448C8.04359 23.3532 8.03086 23.3618 8.0179 23.3701C8.00514 23.3783 7.99219 23.3862 7.97937 23.3942C7.96654 23.4022 7.95378 23.4104 7.94086 23.4182C7.9281 23.426 7.91518 23.4335 7.90232 23.4412C7.8895 23.4488 7.87671 23.4565 7.86382 23.464C7.85102 23.4713 7.83817 23.4786 7.82528 23.4859L7.78677 23.5074L7.74824 23.5283L7.70973 23.5486C7.6969 23.5553 7.68411 23.562 7.67122 23.5686C7.65843 23.5751 7.64557 23.5814 7.63269 23.5878C7.61986 23.5941 7.6071 23.6006 7.59418 23.6068C7.58142 23.613 7.56847 23.6188 7.55564 23.6248C7.54282 23.6309 7.53003 23.637 7.51714 23.6429C7.50434 23.6487 7.49142 23.6543 7.4786 23.66L7.44009 23.6768L7.40156 23.6932L7.36305 23.7089C7.35019 23.7142 7.3374 23.7195 7.32451 23.7246C7.31175 23.7296 7.29883 23.7343 7.28601 23.7392C7.27315 23.7441 7.26039 23.7491 7.24747 23.7538C7.23468 23.7586 7.22182 23.7631 7.20896 23.7677L7.17042 23.7813L7.13192 23.7945C7.11913 23.7988 7.10624 23.8028 7.09338 23.807C7.08052 23.8111 7.06776 23.8155 7.05488 23.8195C7.04211 23.8235 7.02919 23.8272 7.01637 23.831L6.97783 23.8425L6.93933 23.8535C6.9265 23.8571 6.91364 23.8605 6.90079 23.8639C6.88793 23.8674 6.8752 23.871 6.86228 23.8743C6.84949 23.8776 6.8366 23.8806 6.82374 23.8838C6.81092 23.8869 6.7981 23.8901 6.78524 23.8932L6.7467 23.9021L6.7082 23.9104C6.69534 23.9132 6.68258 23.9162 6.66969 23.9188C6.6569 23.9214 6.64398 23.9238 6.63115 23.9262L6.59265 23.9336L6.55411 23.9406C6.54132 23.9428 6.52846 23.9448 6.5156 23.947C6.50275 23.9491 6.48995 23.9513 6.47706 23.9533C6.46427 23.9553 6.45138 23.957 6.43856 23.9589L6.40002 23.9643C6.3872 23.966 6.37437 23.9678 6.36152 23.9694C6.34872 23.971 6.33583 23.9723 6.32301 23.9738C6.31015 23.9752 6.29736 23.9768 6.28447 23.9782C6.27168 23.9795 6.25882 23.9807 6.24597 23.9819L6.20743 23.9854C6.19457 23.9864 6.18181 23.9878 6.16892 23.9887C6.15613 23.9897 6.14324 23.9903 6.13038 23.9911L6.09185 23.9936L6.05334 23.9957C6.04055 23.9963 6.02766 23.9966 6.01483 23.9971C6.00198 23.9976 5.98915 23.9982 5.9763 23.9986C5.9635 23.9989 5.95065 23.999 5.93779 23.9993L5.89925 23.9998C5.88726 23.9999 5.87533 24.0003 5.86331 24.0003H5.86075H5.82221H5.7837H5.74517H5.70666H5.66816H5.62962H5.59111H5.55257H5.51407H5.47553H5.43702H5.39849H5.35998H5.32147H5.28294H5.24443H5.20589H5.16739H5.12885H5.09034H5.05184H5.0133H4.9748H4.93626H4.89772H4.85921H4.82068H4.78217H4.74363H4.70513H4.66662H4.62808H4.58958H4.55104H4.51253H4.474H4.43549H4.39698H4.35845H4.31994H4.2814H4.2429H4.20436H4.16585H4.12732H4.08881H4.0503H4.01177H3.97326H3.93472H3.89622H3.85768H3.81917H3.78064H3.7421H3.70359H3.66509H3.62655H3.58804H3.54951H3.511H3.47246H3.43396H3.39545H3.35691H3.31841H3.27987H3.24136H3.20282H3.16432H3.12578H3.08728H3.04874H3.01023H2.97169H2.93319H2.89468H2.85614H2.81764H2.7791H2.7406H2.70206H2.66355H2.62501H2.58651H2.54797H2.50946H2.47093H2.43242H2.39392H2.35538H2.31687H2.27833H2.23983H2.20129H2.16278H2.12425H2.08574H2.04724H2.0087H1.97019H1.93165H1.89315H1.85461H1.8161H1.77757H1.73906H1.70052H1.66202H1.62348H1.58497H1.54647H1.50793H1.46942H1.43089H1.39238H1.35384H1.31534H1.2768H1.23829H1.19976H1.16125H1.12271H1.08421H1.04573H1.0072H0.968689H0.930152H0.891646H0.853108H0.814602H0.776064H0.737559H0.699021H0.660515H0.621977H0.583472H0.544966H0.506428H0.467922H0.429384H0.390879H0.352341H0.313835H0.275329H0.236791H0.198286H0.159748H0.12121H0.0827043H0V14.7647C0.0269924 14.7878 0.0546245 14.8107 0.0827043 14.8334C0.095433 14.8437 0.10829 14.854 0.12121 14.8641C0.133971 14.8742 0.146795 14.8842 0.159748 14.8942C0.17254 14.9039 0.185301 14.9137 0.198286 14.9235C0.210982 14.933 0.223903 14.9423 0.236791 14.9518C0.24952 14.961 0.262409 14.9703 0.275329 14.9795C0.28809 14.9885 0.300882 14.9976 0.313835 15.0066L0.352341 15.033C0.365069 15.0416 0.377958 15.0501 0.390879 15.0586L0.429384 15.0838C0.442145 15.092 0.45497 15.1003 0.467922 15.1084C0.480619 15.1164 0.493539 15.1244 0.506428 15.1323L0.544966 15.1558C0.557758 15.1634 0.570551 15.1711 0.583472 15.1787C0.5962 15.1862 0.609089 15.1935 0.621977 15.2009L0.660515 15.2229L0.699021 15.2442L0.737559 15.2651C0.750351 15.2719 0.763112 15.2788 0.776064 15.2856C0.788793 15.2923 0.801714 15.2989 0.814602 15.3054L0.853108 15.325L0.891646 15.3442L0.930152 15.3628C0.942976 15.369 0.955737 15.3752 0.968689 15.3813L1.0072 15.399L1.04573 15.4167L1.08421 15.4337L1.12271 15.4506L1.16125 15.467L1.19976 15.4831L1.23829 15.4989L1.2768 15.5142L1.31534 15.5295L1.35384 15.5441C1.36667 15.549 1.37943 15.5539 1.39238 15.5587L1.43089 15.5728C1.44371 15.5774 1.45647 15.5822 1.46942 15.5868C1.48215 15.5914 1.49511 15.5957 1.50793 15.6002L1.54647 15.6137L1.58497 15.6266C1.5978 15.6308 1.61053 15.6352 1.62348 15.6395C1.63621 15.6436 1.64916 15.6477 1.66202 15.6518L1.70052 15.6642L1.73906 15.676L1.77757 15.6878L1.8161 15.6992L1.85461 15.7104L1.89315 15.7214L1.93165 15.7322L1.97019 15.7427L2.0087 15.7529L2.04724 15.763L2.08574 15.7728L2.12425 15.7825L2.16278 15.7919L2.20129 15.8012L2.23983 15.8101L2.27833 15.8189L2.31687 15.8275L2.35538 15.8359L2.39392 15.8442L2.43242 15.8522L2.47093 15.8601L2.50946 15.8677L2.54797 15.8752L2.58651 15.8825L2.62501 15.8896L2.66355 15.8966L2.70206 15.9033L2.7406 15.91L2.7791 15.9164L2.81764 15.9227L2.85614 15.9289L2.89468 15.9347L2.93319 15.9406L2.97169 15.9463L3.01023 15.9517L3.04874 15.9572L3.08728 15.9623L3.12578 15.9674L3.16432 15.9723L3.20282 15.977L3.24136 15.9817L3.27987 15.9861L3.31841 15.9905L3.35691 15.9948L3.39545 15.9987L3.43396 16.0027L3.47246 16.0066L3.511 16.0102L3.54951 16.0138L3.58804 16.0172L3.62655 16.0204L3.66509 16.0237L3.70359 16.0267L3.7421 16.0296L3.78064 16.0325L3.81917 16.0351L3.85768 16.0377L3.89622 16.0403L3.93472 16.0425L3.97326 16.0448L4.01177 16.047L4.0503 16.0489L4.08881 16.0508L4.12732 16.0527L4.16585 16.0542L4.20436 16.0558L4.2429 16.0574L4.2814 16.0587L4.31994 16.0599L4.35845 16.0612L4.39698 16.0621L4.43549 16.0631L4.474 16.0641L4.51253 16.0647L4.55104 16.0654L4.58958 16.066L4.62808 16.0664L4.66662 16.0668L4.70513 16.0671L4.74363 16.0673L4.78217 16.0674L4.82068 16.0674L4.85921 16.0673L4.89772 16.0671L4.93626 16.0669L4.9748 16.0666L5.0133 16.066L5.05184 16.0655L5.09034 16.065L5.12885 16.0642L5.16739 16.0634L5.20589 16.0626L5.24443 16.0617L5.28294 16.0606L5.32147 16.0595L5.35998 16.0584L5.39849 16.057L5.43702 16.0557L5.47553 16.0544L5.51407 16.0528L5.55257 16.0512L5.59111 16.0496L5.60992 16.0488L5.62962 16.0478L5.66816 16.0459L5.70666 16.0439L5.74517 16.0418L5.7837 16.0394L5.82221 16.0371L5.86075 16.0345L5.89925 16.0319L5.93779 16.029L5.9763 16.0261L6.01483 16.0231L6.05334 16.0199L6.09185 16.0166L6.13038 16.0132L6.16892 16.0098L6.20743 16.0061L6.24597 16.0024L6.28447 15.9986L6.32301 15.9947L6.36152 15.9906L6.40002 15.9865L6.43856 15.9822L6.47706 15.9779L6.5156 15.9734L6.55411 15.9689L6.59265 15.9642L6.63115 15.9595L6.66969 15.9547L6.7082 15.9497L6.7467 15.9448L6.78524 15.9396L6.82374 15.9344L6.86228 15.9291L6.90079 15.9238L6.93933 15.9183L6.97783 15.9128L7.01637 15.9072L7.05488 15.9014L7.09338 15.8956L7.13192 15.8898L7.17042 15.8838L7.20896 15.8777L7.24747 15.8716L7.28601 15.8654L7.32451 15.8591L7.36305 15.8527L7.40156 15.8463L7.44009 15.8398L7.4786 15.8332L7.51714 15.8265L7.55564 15.8197L7.59418 15.8129L7.63269 15.806L7.67122 15.799L7.70973 15.792L7.74824 15.7848L7.78677 15.7776L7.82528 15.7703L7.86382 15.7629L7.90232 15.7555L7.94086 15.748L7.97937 15.7404L8.0179 15.7328L8.05641 15.725L8.09492 15.7172L8.13345 15.7093L8.17196 15.7013L8.2105 15.6933L8.249 15.6852L8.28754 15.6769L8.32605 15.6687L8.36458 15.6603L8.40309 15.6518L8.4416 15.6433L8.48013 15.6347L8.51864 15.626L8.55718 15.6171L8.59571 15.6082L8.63422 15.5991L8.67276 15.59L8.71126 15.5807L8.74958 15.5712V13.8792L8.71126 13.8982L8.67276 13.9173L8.63422 13.9361L8.59571 13.9548L8.55718 13.9734L8.51864 13.9917L8.48013 14.0098L8.4416 14.0278L8.40309 14.0456L8.36458 14.0632L8.32605 14.0805L8.28754 14.0978L8.249 14.1147L8.2105 14.1315L8.17196 14.1481L8.13345 14.1645L8.09492 14.1807L8.05641 14.1967L8.0179 14.2124L7.97937 14.228L7.94086 14.2433L7.90232 14.2585L7.86382 14.2734L7.82528 14.2881L7.78677 14.3026L7.74824 14.3168L7.70973 14.3309L7.67122 14.3447L7.63269 14.3584L7.59418 14.3718L7.55564 14.3849L7.51714 14.3979L7.4786 14.4106L7.44009 14.4232L7.40156 14.4355L7.36305 14.4476L7.32451 14.4594L7.28601 14.4711L7.24747 14.4825L7.20896 14.4937L7.17042 14.5047L7.13192 14.5154L7.09338 14.526L7.05488 14.5363L7.01637 14.5465L6.97783 14.5563L6.93933 14.566L6.90079 14.5754L6.86228 14.5847L6.82374 14.5937L6.78524 14.6025L6.7467 14.6111L6.7082 14.6195L6.66969 14.6277L6.63115 14.6356L6.59265 14.6433L6.55411 14.6509L6.5156 14.6581L6.47706 14.6652L6.43856 14.6721L6.40002 14.6788L6.36152 14.6852L6.32301 14.6914L6.28447 14.6975L6.24597 14.7033L6.20743 14.7089L6.16892 14.7143L6.13038 14.7195L6.09185 14.7245L6.05334 14.7293L6.01483 14.7339L5.9763 14.7382L5.93779 14.7424L5.89925 14.7464L5.86075 14.7501L5.82221 14.7537L5.7837 14.7571L5.74517 14.7602L5.72182 14.7621L5.70666 14.7631L5.66816 14.7657L5.62962 14.7682L5.59111 14.7703L5.55257 14.7723L5.51407 14.7741L5.47553 14.7753L5.43702 14.7766L5.39849 14.7774L5.35998 14.778L5.32147 14.7784C5.30855 14.7785 5.29579 14.7784 5.28294 14.7783L5.24443 14.7782L5.20589 14.7776L5.16739 14.7768L5.12885 14.7758C5.11593 14.7754 5.10317 14.7747 5.09034 14.7742C5.07752 14.7737 5.0646 14.7733 5.05184 14.7727L5.0133 14.7705L4.9748 14.7682L4.93626 14.7656L4.89772 14.7625C4.88489 14.7614 4.87197 14.7605 4.85921 14.7593C4.84629 14.7582 4.83353 14.7568 4.82068 14.7555L4.78217 14.7516L4.74363 14.7471L4.70513 14.7424L4.66662 14.7374L4.62808 14.7319C4.61523 14.73 4.60234 14.7282 4.58958 14.7262C4.57666 14.7241 4.56386 14.7219 4.55104 14.7198C4.53821 14.7176 4.52526 14.7157 4.51253 14.7134C4.49958 14.7111 4.48685 14.7086 4.474 14.7062C4.46117 14.7038 4.44822 14.7015 4.43549 14.699C4.42254 14.6964 4.40984 14.6936 4.39698 14.6909C4.38413 14.6882 4.37121 14.6856 4.35845 14.6828C4.34553 14.68 4.33273 14.6769 4.31994 14.6739L4.2814 14.6649C4.26848 14.6617 4.25569 14.6584 4.2429 14.6552C4.23001 14.6519 4.21712 14.6486 4.20436 14.6452C4.19144 14.6417 4.17865 14.6381 4.16585 14.6345C4.15296 14.6309 4.14008 14.6273 4.12732 14.6235C4.1144 14.6197 4.1016 14.6158 4.08881 14.6118C4.07592 14.6079 4.06306 14.6039 4.0503 14.5998C4.03738 14.5956 4.02456 14.5913 4.01177 14.5871C3.99891 14.5827 3.98599 14.5784 3.97326 14.574C3.96031 14.5695 3.94755 14.5648 3.93472 14.5601C3.92187 14.5554 3.90895 14.5507 3.89622 14.5459C3.88326 14.541 3.8705 14.5359 3.85768 14.5308C3.84482 14.5257 3.8319 14.5207 3.81917 14.5154C3.80619 14.5101 3.79346 14.5045 3.78064 14.499C3.76775 14.4935 3.75483 14.488 3.7421 14.4823C3.72915 14.4765 3.71638 14.4705 3.70359 14.4645C3.6907 14.4585 3.67781 14.4525 3.66509 14.4464C3.65217 14.4401 3.63931 14.4337 3.62655 14.4273C3.61363 14.4208 3.6008 14.4141 3.58804 14.4074C3.57515 14.4007 3.5622 14.394 3.54951 14.3871C3.53652 14.38 3.52379 14.3727 3.511 14.3654C3.49811 14.3581 3.48519 14.3508 3.47246 14.3433C3.45951 14.3356 3.44672 14.3278 3.43396 14.32C3.421 14.3121 3.40821 14.304 3.39545 14.2958C3.38256 14.2876 3.36958 14.2794 3.35691 14.271C3.3439 14.2624 3.3312 14.2534 3.31841 14.2446C3.30545 14.2356 3.2926 14.2265 3.27987 14.2173C3.26695 14.208 3.25403 14.1987 3.24136 14.1892C3.22835 14.1794 3.21559 14.1694 3.20282 14.1594C3.18987 14.1492 3.17705 14.1389 3.16432 14.1285C3.1514 14.1179 3.13845 14.1074 3.12578 14.0966C3.11276 14.0854 3.1 14.0741 3.08728 14.0627C3.07426 14.0511 3.06147 14.0393 3.04874 14.0274C3.03579 14.0153 3.0229 14.003 3.01023 13.9907C2.99728 13.978 2.98433 13.9653 2.97169 13.9524C2.95865 13.939 2.94588 13.9253 2.93319 13.9116C2.92014 13.8976 2.90735 13.8833 2.89468 13.869C2.88163 13.8542 2.86878 13.8392 2.85614 13.8241C2.84313 13.8086 2.83027 13.7929 2.81764 13.777C2.80459 13.7605 2.7917 13.7439 2.7791 13.727C2.76605 13.7096 2.75316 13.6921 2.7406 13.6742C2.72751 13.6557 2.71463 13.637 2.70206 13.618C2.68895 13.5982 2.67612 13.5782 2.66355 13.5579C2.65038 13.5367 2.63755 13.5151 2.62501 13.4934C2.61181 13.4705 2.59901 13.4473 2.58651 13.4239C2.57324 13.399 2.56044 13.3738 2.54797 13.3483C2.5347 13.3212 2.52184 13.2936 2.50946 13.2658C2.49616 13.2359 2.48321 13.2057 2.47093 13.175C2.45737 13.141 2.4447 13.1064 2.43242 13.0715C2.41883 13.0327 2.40594 12.9935 2.39392 12.9536C2.38 12.9073 2.36711 12.8602 2.35538 12.8123C2.34079 12.7528 2.32807 12.6919 2.31687 12.63C2.30027 12.5381 2.28735 12.4437 2.27833 12.3468C2.26797 12.2348 2.26266 12.1195 2.26266 12.0008C2.26266 11.882 2.26797 11.7666 2.27833 11.6545C2.28735 11.5575 2.30027 11.4631 2.31687 11.3712C2.32807 11.3093 2.34079 11.2483 2.35538 11.1888C2.36711 11.1409 2.38 11.0938 2.39392 11.0475C2.40594 11.0075 2.41883 10.9682 2.43242 10.9295C2.4447 10.8945 2.45737 10.8599 2.47093 10.8259C2.48321 10.7952 2.49616 10.765 2.50946 10.735C2.52184 10.7072 2.5347 10.6797 2.54797 10.6525C2.56044 10.627 2.57324 10.6018 2.58651 10.5769C2.59901 10.5535 2.61181 10.5302 2.62501 10.5073C2.63755 10.4856 2.65038 10.464 2.66355 10.4428C2.67612 10.4225 2.68895 10.4025 2.70206 10.3827C2.71463 10.3637 2.72751 10.345 2.7406 10.3264C2.75316 10.3086 2.76605 10.291 2.7791 10.2736C2.7917 10.2567 2.80459 10.2401 2.81764 10.2237C2.83027 10.2077 2.84313 10.192 2.85614 10.1765C2.86878 10.1613 2.88163 10.1464 2.89468 10.1316C2.90735 10.1173 2.92014 10.103 2.93319 10.0889C2.94588 10.0752 2.95865 10.0615 2.97169 10.0482C2.98433 10.0352 2.99728 10.0225 3.01023 10.0098C3.0229 9.99745 3.03579 9.98523 3.04874 9.9731C3.06147 9.96123 3.07426 9.94939 3.08728 9.93777C3.1 9.92641 3.11276 9.91502 3.12578 9.90388C3.13845 9.89307 3.1514 9.88251 3.16432 9.87191C3.17705 9.86151 3.18987 9.85124 3.20282 9.84107C3.21559 9.83102 3.22835 9.821 3.24136 9.81121C3.25403 9.80168 3.26695 9.79236 3.27987 9.78305C3.2926 9.77384 3.30545 9.76481 3.31841 9.75582C3.3312 9.74696 3.3439 9.73803 3.35691 9.72939C3.36958 9.72094 3.38256 9.71275 3.39545 9.70453C3.40821 9.69637 3.421 9.68827 3.43396 9.68033C3.44672 9.67249 3.45951 9.66472 3.47246 9.65707C3.48519 9.64955 3.49811 9.64225 3.511 9.63493C3.52379 9.62766 3.53652 9.62037 3.54951 9.6133C3.5622 9.60635 3.57515 9.59963 3.58804 9.59288C3.6008 9.58619 3.61363 9.57957 3.62655 9.57304C3.63931 9.56661 3.65217 9.56024 3.66509 9.55397C3.67781 9.54779 3.6907 9.54178 3.70359 9.53576C3.71638 9.52981 3.72915 9.52379 3.7421 9.518C3.75483 9.51231 3.76775 9.50683 3.78064 9.5013C3.79346 9.49576 3.80619 9.49019 3.81917 9.48485C3.8319 9.4796 3.84482 9.47458 3.85768 9.46949C3.8705 9.4644 3.88326 9.45928 3.89622 9.45435C3.90895 9.44952 3.92187 9.44488 3.93472 9.44018C3.94755 9.43551 3.96031 9.4308 3.97326 9.42626C3.98599 9.42181 3.99891 9.41749 4.01177 9.41317C4.02456 9.40888 4.03738 9.4046 4.0503 9.40044C4.06306 9.39634 4.07592 9.39237 4.08881 9.3884C4.1016 9.38447 4.1144 9.38056 4.12732 9.37676L4.16585 9.36575C4.17865 9.36216 4.19144 9.35852 4.20436 9.35506C4.21712 9.35164 4.23001 9.34837 4.2429 9.34508C4.25569 9.34181 4.26848 9.33848 4.2814 9.33535L4.31994 9.32629C4.33273 9.32332 4.34553 9.32028 4.35845 9.31743C4.37121 9.31461 4.38413 9.31199 4.39698 9.3093C4.40984 9.30661 4.42254 9.3038 4.43549 9.30124C4.44822 9.29871 4.46117 9.29644 4.474 9.29404C4.48685 9.29164 4.49958 9.28911 4.51253 9.28681C4.52526 9.28453 4.53821 9.28255 4.55104 9.28041C4.56386 9.27826 4.57666 9.27605 4.58958 9.27404L4.62808 9.26831L4.66662 9.26281L4.70513 9.25772L4.74363 9.25305L4.78217 9.24857L4.82068 9.24469C4.83353 9.24341 4.84629 9.24201 4.85921 9.24082C4.87197 9.23964 4.88489 9.23874 4.89772 9.23769L4.93626 9.23461L4.9748 9.23196L5.0133 9.22965L5.05184 9.22751C5.0646 9.22687 5.07752 9.22645 5.09034 9.22594C5.10317 9.22543 5.11593 9.22479 5.12885 9.22437L5.16739 9.22338L5.20589 9.22255L5.24443 9.22197L5.28294 9.22185C5.29579 9.22182 5.30855 9.22165 5.32147 9.22172L5.35998 9.2222L5.39849 9.22277L5.43702 9.22361L5.47553 9.22485L5.51407 9.2261L5.55257 9.22789L5.59111 9.22985L5.62962 9.23193L5.66816 9.23449L5.70666 9.23708L5.72182 9.2381L5.74517 9.23996L5.7837 9.24303L5.82221 9.24636L5.86075 9.24988L5.89925 9.25356L5.93779 9.25749L5.9763 9.26162L6.01483 9.26591L6.05334 9.27042L6.09185 9.27516L6.13038 9.28005L6.16892 9.28517L6.20743 9.29055L6.24597 9.29605L6.28447 9.30178L6.32301 9.30777L6.36152 9.31394L6.40002 9.32028L6.43856 9.3269L6.47706 9.33372L6.5156 9.34072L6.55411 9.34792L6.59265 9.35538L6.63115 9.36303L6.66969 9.3709L6.7082 9.379L6.7467 9.38732L6.78524 9.39586L6.82374 9.40456L6.86228 9.41352L6.90079 9.42274L6.93933 9.43215L6.97783 9.44175L7.01637 9.4516L7.05488 9.46168L7.09338 9.47195L7.13192 9.48248L7.17042 9.49323L7.20896 9.50418L7.24747 9.51538L7.28601 9.5268L7.32451 9.53845L7.36305 9.55029L7.40156 9.56235L7.44009 9.57467L7.4786 9.58722L7.51714 9.59998L7.55564 9.61298L7.59418 9.62616L7.63269 9.63957L7.67122 9.65326L7.70973 9.66715L7.74824 9.68123L7.78677 9.69557L7.82528 9.71013L7.86382 9.72491L7.90232 9.73988L7.94086 9.75509L7.97937 9.77051L8.0179 9.78616L8.05641 9.80203L8.09492 9.81812L8.13345 9.83441L8.17196 9.85092L8.2105 9.86763L8.249 9.88455L8.28754 9.90164L8.32605 9.91899L8.36458 9.93652L8.40309 9.95425L8.4416 9.97217L8.48013 9.99031L8.51864 10.0086L8.55718 10.0271L8.59571 10.0458L8.63422 10.0647L8.67276 10.0837L8.71126 10.103L8.74958 10.1222V8.42893L8.71126 8.41946L8.67276 8.41018L8.63422 8.40103L8.59571 8.39197L8.55718 8.38305L8.51864 8.37425L8.48013 8.36551L8.4416 8.35687L8.40309 8.34836L8.36458 8.33988L8.32605 8.33153L8.28754 8.32327L8.249 8.31502L8.2105 8.30692L8.17196 8.29889L8.13345 8.29092L8.09492 8.28302L8.05641 8.27521L8.0179 8.26746L7.97937 8.25982L7.94086 8.25226L7.90232 8.24471L7.86382 8.23729L7.82528 8.22993L7.78677 8.22266L7.74824 8.21546L7.70973 8.20833L7.67122 8.20129L7.63269 8.19431L7.59418 8.1874L7.55564 8.18059L7.51714 8.17383L7.4786 8.16715L7.44009 8.16059L7.40156 8.15406L7.36305 8.14763L7.32451 8.14126L7.28601 8.13499L7.24747 8.12881L7.20896 8.12267L7.17042 8.11665L7.13192 8.11067L7.09338 8.10481L7.05488 8.09902L7.01637 8.09329L6.97783 8.08769L6.93933 8.08216L6.90079 8.07672L6.86228 8.07137L6.82374 8.06609L6.78524 8.06091L6.7467 8.05579L6.7082 8.05083L6.66969 8.0459L6.63115 8.04107L6.59265 8.03633L6.55411 8.03172L6.5156 8.02721L6.47706 8.02276L6.43856 8.01844L6.40002 8.01419L6.36152 8.01009L6.32301 8.00603L6.28447 8.00216L6.24597 7.99832L6.20743 7.99461L6.16892 7.99099L6.13038 7.98753L6.09185 7.98414L6.05334 7.98088L6.01483 7.97774L5.9763 7.9747L5.93779 7.97185L5.89925 7.96901L5.86075 7.96641L5.82221 7.96382L5.7837 7.96149L5.74517 7.95918L5.70666 7.95707L5.66816 7.95505L5.62962 7.9532L5.60992 7.95227L5.59111 7.95147L5.55257 7.94987L5.51407 7.94827L5.47553 7.94667L5.43702 7.94533L5.39849 7.94401L5.35998 7.94267L5.32147 7.94152L5.28294 7.94043L5.24443 7.93937L5.20589 7.93838L5.16739 7.93758L5.12885 7.93681L5.09034 7.93601L5.05184 7.9355L5.0133 7.93499L4.9748 7.93448L4.93626 7.93416L4.89772 7.93397L4.85921 7.93374L4.82068 7.93365L4.78217 7.93371L4.74363 7.93377L4.70513 7.9339L4.66662 7.93425L4.62808 7.93464L4.58958 7.93502L4.55104 7.93569L4.51253 7.93633L4.474 7.93701L4.43549 7.93797L4.39698 7.93893L4.35845 7.93989L4.31994 7.94113L4.2814 7.94241L4.2429 7.94369L4.20436 7.94526L4.16585 7.94686L4.12732 7.94843L4.08881 7.95032L4.0503 7.95224L4.01177 7.95413L3.97326 7.95633L3.93472 7.95857L3.89622 7.96081L3.85768 7.96337L3.81917 7.96597L3.78064 7.96856L3.7421 7.9715L3.70359 7.97441L3.66509 7.97742L3.62655 7.98069L3.58804 7.98392L3.54951 7.98734L3.511 7.99096L3.47246 7.99457L3.43396 7.99841L3.39545 8.00241L3.35691 8.00638L3.31841 8.0107L3.27987 8.01502L3.24136 8.01944L3.20282 8.02417L3.16432 8.02888L3.12578 8.03384L3.08728 8.03892L3.04874 8.04401L3.01023 8.04945L2.97169 8.05492L2.93319 8.06056L2.89468 8.06644L2.85614 8.0723L2.81764 8.07851L2.7791 8.08481L2.7406 8.09124L2.70206 8.0979L2.66355 8.10459L2.62501 8.11163L2.58651 8.11876L2.54797 8.12606L2.50946 8.13358L2.47093 8.14113L2.43242 8.1491L2.39392 8.15707L2.35538 8.16532L2.31687 8.17374L2.27833 8.18231L2.23983 8.19118L2.20129 8.20007L2.16278 8.20942L2.12425 8.21876L2.08574 8.22846L2.04724 8.23828L2.0087 8.24839L1.97019 8.2587L1.93165 8.26919L1.89315 8.27998L1.85461 8.29092L1.8161 8.30222L1.77757 8.31358L1.73906 8.32538L1.70052 8.33725L1.66202 8.34961C1.64916 8.35374 1.63621 8.35777 1.62348 8.36196L1.58497 8.37485C1.57215 8.37914 1.5592 8.38337 1.54647 8.38775L1.50793 8.40119L1.46942 8.41463C1.45647 8.41924 1.44371 8.42401 1.43089 8.42868C1.41803 8.43335 1.40511 8.43796 1.39238 8.44272L1.35384 8.45735C1.34099 8.46224 1.32807 8.46704 1.31534 8.472L1.2768 8.48724L1.23829 8.5026L1.19976 8.51844L1.16125 8.5345L1.12271 8.55095L1.08421 8.56778L1.04573 8.58487L1.0072 8.6025L0.968689 8.62029C0.955737 8.62637 0.942976 8.63258 0.930152 8.63872L0.891646 8.65738L0.853108 8.67654L0.814602 8.69613C0.801714 8.70275 0.788793 8.70931 0.776064 8.716C0.763112 8.72278 0.750351 8.7297 0.737559 8.73658L0.699021 8.75744L0.660515 8.77878C0.647563 8.78605 0.63477 8.79337 0.621977 8.80073C0.609089 8.80813 0.5962 8.81549 0.583472 8.82297C0.570551 8.83056 0.557758 8.83824 0.544966 8.84592C0.532013 8.85369 0.519189 8.86153 0.506428 8.86941C0.493539 8.87734 0.480619 8.88528 0.467922 8.89328C0.45497 8.90144 0.442145 8.90969 0.429384 8.91792L0.390879 8.9431C0.377958 8.95164 0.365069 8.96012 0.352341 8.96876L0.313835 8.9952C0.300882 9.00419 0.28809 9.01324 0.275329 9.0223C0.262409 9.03148 0.24952 9.04073 0.236791 9.05004C0.223903 9.05945 0.210982 9.06883 0.198286 9.07833C0.185301 9.08806 0.17254 9.09785 0.159748 9.10767C0.146795 9.11762 0.133971 9.12764 0.12121 9.13769C0.10829 9.14786 0.095433 9.1581 0.0827043 9.16841V9.16838Z" fill="#E10238"/>
</svg>
