<svg width="24" height="16" viewBox="0 0 24 16" fill="none" xmlns="http://www.w3.org/2000/svg">
<g clip-path="url(#clip0_863_3617)">
<mask id="mask0_863_3617" style="mask-type:alpha" maskUnits="userSpaceOnUse" x="0" y="0" width="24" height="16">
<path d="M21.7143 0H2.28571C1.02335 0 0 0.955126 0 2.13333V13.8667C0 15.0449 1.02335 16 2.28571 16H21.7143C22.9767 16 24 15.0449 24 13.8667V2.13333C24 0.955126 22.9767 0 21.7143 0Z" fill="white"/>
</mask>
<g mask="url(#mask0_863_3617)">
<path d="M21.7143 0H2.28571C1.02335 0 0 0.955126 0 2.13333V13.8667C0 15.0449 1.02335 16 2.28571 16H21.7143C22.9767 16 24 15.0449 24 13.8667V2.13333C24 0.955126 22.9767 0 21.7143 0Z" fill="#FCFBFA"/>
<path fill-rule="evenodd" clip-rule="evenodd" d="M0 0H10.2857V7.46667H0V0Z" fill="#444379"/>
<path fill-rule="evenodd" clip-rule="evenodd" d="M1.14453 1.06641V2.13307H2.28739V1.06641H1.14453ZM3.43025 1.06641V2.13307H4.5731V1.06641H3.43025ZM5.71596 1.06641V2.13307H6.85882V1.06641H5.71596ZM8.00167 1.06641V2.13307H9.14453V1.06641H8.00167ZM6.85882 2.13307V3.19974H8.00167V2.13307H6.85882ZM4.5731 2.13307V3.19974H5.71596V2.13307H4.5731ZM2.28739 2.13307V3.19974H3.43025V2.13307H2.28739ZM1.14453 3.19974V4.26641H2.28739V3.19974H1.14453ZM3.43025 3.19974V4.26641H4.5731V3.19974H3.43025ZM5.71596 3.19974V4.26641H6.85882V3.19974H5.71596ZM8.00167 3.19974V4.26641H9.14453V3.19974H8.00167ZM1.14453 5.33307V6.39974H2.28739V5.33307H1.14453ZM3.43025 5.33307V6.39974H4.5731V5.33307H3.43025ZM5.71596 5.33307V6.39974H6.85882V5.33307H5.71596ZM8.00167 5.33307V6.39974H9.14453V5.33307H8.00167ZM6.85882 4.26641V5.33307H8.00167V4.26641H6.85882ZM4.5731 4.26641V5.33307H5.71596V4.26641H4.5731ZM2.28739 4.26641V5.33307H3.43025V4.26641H2.28739Z" fill="#A7B6E7"/>
<path fill-rule="evenodd" clip-rule="evenodd" d="M10.2857 0V1.06667H24V0H10.2857ZM10.2857 2.13333V3.2H24V2.13333H10.2857ZM10.2857 4.26667V5.33333H24V4.26667H10.2857ZM10.2857 6.4V7.46667H24V6.4H10.2857ZM0 8.53333V9.6H24V8.53333H0ZM0 10.6667V11.7333H24V10.6667H0ZM0 12.8V13.8667H24V12.8H0ZM0 14.9333V16H24V14.9333H0Z" fill="#ED4C49"/>
</g>
</g>
<defs>
<clipPath id="clip0_863_3617">
<rect width="24" height="16" fill="white"/>
</clipPath>
</defs>
</svg>
