<svg width="30" height="12" viewBox="0 0 30 12" fill="none" xmlns="http://www.w3.org/2000/svg">
<path fill-rule="evenodd" clip-rule="evenodd" d="M5.34995 1.54702C5.0068 1.95233 4.45776 2.27201 3.90873 2.22634C3.8401 1.67832 4.1089 1.09605 4.42345 0.736406C4.7666 0.31968 5.36711 0.0228343 5.85323 0C5.91043 0.570858 5.68738 1.1303 5.34995 1.54702ZM5.84733 2.33472C5.36364 2.30694 4.92229 2.47992 4.5658 2.61964C4.33639 2.70956 4.14213 2.7857 3.99433 2.7857C3.82847 2.7857 3.62618 2.70549 3.39906 2.61543C3.10146 2.49742 2.76121 2.3625 2.40441 2.36898C1.58657 2.38039 0.825922 2.84279 0.408424 3.57919C-0.449448 5.05201 0.185377 7.23268 1.01465 8.43148C1.42071 9.02517 1.90684 9.67595 2.54739 9.65312C2.82919 9.6425 3.0319 9.55664 3.24168 9.46779C3.48321 9.36549 3.73411 9.25922 4.12587 9.25922C4.50405 9.25922 4.74398 9.36272 4.97429 9.46208C5.19329 9.55654 5.40359 9.64726 5.71579 9.6417C6.37921 9.63028 6.79671 9.04801 7.20277 8.45432C7.64098 7.81712 7.83354 7.19526 7.86277 7.10088L7.86619 7.08997C7.86549 7.08927 7.86008 7.0868 7.85054 7.08243L7.85053 7.08243C7.70404 7.01549 6.5844 6.50387 6.57367 5.13193C6.56288 3.98038 7.46173 3.39693 7.60323 3.30509C7.61184 3.2995 7.61764 3.29573 7.62027 3.29376C7.04835 2.4489 6.15617 2.35756 5.84733 2.33472ZM10.4414 9.57995V0.680281H13.7871C15.5143 0.680281 16.7211 1.86766 16.7211 3.60307C16.7211 5.33848 15.4914 6.53728 13.7414 6.53728H11.8255V9.57995H10.4414ZM11.8255 1.84284H13.4212C14.6222 1.84284 15.3085 2.4822 15.3085 3.60679C15.3085 4.73137 14.6222 5.37644 13.4154 5.37644H11.8255V1.84284ZM21.2903 8.51128C20.9243 9.20773 20.1179 9.64729 19.2486 9.64729C17.9618 9.64729 17.0639 8.88234 17.0639 7.72921C17.0639 6.58749 17.9332 5.93101 19.5403 5.83396L21.2675 5.7312V5.24027C21.2675 4.51528 20.7928 4.12139 19.9463 4.12139C19.2486 4.12139 18.7396 4.48103 18.6366 5.02905H17.3899C17.4299 3.87592 18.5165 3.03676 19.9864 3.03676C21.5706 3.03676 22.6 3.8645 22.6 5.14893V9.57878H21.3189V8.51128H21.2903ZM19.619 8.59127C18.8812 8.59127 18.4123 8.23734 18.4123 7.69502C18.4123 7.13558 18.8641 6.8102 19.7277 6.75882L21.2661 6.66177V7.16413C21.2661 7.99758 20.5569 8.59127 19.619 8.59127ZM26.8482 9.9272C26.2935 11.4856 25.6586 11.9994 24.3089 11.9994C24.206 11.9994 23.8628 11.988 23.7828 11.9652V10.8977C23.8685 10.9091 24.0802 10.9205 24.1888 10.9205C24.8008 10.9205 25.1439 10.6636 25.3555 9.9957L25.4813 9.60181L23.1365 3.12258H24.5834L26.2134 8.38018H26.242L27.8719 3.12258H29.2789L26.8482 9.9272Z" fill="black"/>
</svg>
